<svg width="73" height="34" viewBox="0 0 73 34" fill="none" xmlns="http://www.w3.org/2000/svg">
<path d="M8.765 20.625V29.265H15.245V20.625H23.165V14.775H15.245V6.135H8.765V14.775H0.845V20.625H8.765ZM32.7556 9.915V33H41.9806V0.824998H34.0156L26.6356 6V13.695L32.7556 9.915ZM59.621 33.54C63.716 33.54 66.911 32.415 69.206 30.435C71.411 28.455 72.671 25.62 72.671 22.2C72.671 18.735 71.681 15.945 70.016 14.1C68.261 12.255 65.831 11.265 62.906 11.265C58.901 11.265 56.606 12.93 55.391 14.685L55.571 7.575H70.601V0.824998H48.911L48.236 19.77H53.726C54.806 18.51 56.381 17.475 59.036 17.475C61.871 17.475 63.401 19.185 63.401 22.065C63.401 24.63 62.231 26.61 59.531 26.61C58.046 26.61 57.056 26.25 56.471 25.575C55.796 24.9 55.526 24 55.346 22.875H46.976C47.111 25.89 48.101 28.545 50.216 30.48C52.241 32.415 55.346 33.54 59.621 33.54Z" fill="#69C87C"/>
</svg>
