<svg width="782" height="373" viewBox="0 0 782 373" fill="none" xmlns="http://www.w3.org/2000/svg">
<rect x="273" y="121" width="234" height="131" rx="5" fill="#69C87C"/>
<rect x="273" width="234" height="81" rx="5" fill="#F3F8FB"/>
<rect x="273" y="292" width="234" height="81" rx="5" fill="#F3F8FB"/>
<rect x="548" y="292" width="234" height="81" rx="5" fill="#F3F8FB"/>
<rect y="121" width="234" height="131" rx="5" fill="#F3F8FB"/>
<rect x="546" y="121" width="234" height="131" rx="5" fill="#F3F8FB"/>
<path d="M317.501 31.135C319.901 31.135 321.611 29.92 321.986 27.445H320.771C320.486 29.2 319.286 30.07 317.531 30.07C315.221 30.07 313.841 28.42 313.841 25.69V25.57C313.841 22.87 315.326 21.145 317.546 21.145C319.391 21.145 320.306 21.985 320.591 23.62H321.881C321.641 21.295 319.766 20.11 317.531 20.11C314.606 20.11 312.491 22.405 312.491 25.585V25.705C312.491 29.005 314.396 31.135 317.501 31.135ZM323.793 31H325.038L329.043 24.955V31H330.288V23.155H329.043L325.038 29.2V23.155H323.793V31ZM336.001 31.135C337.876 31.135 339.256 29.875 339.421 28.18H338.266C338.146 29.455 337.126 30.1 336.016 30.1C334.501 30.1 333.451 29.095 333.451 27.16V27.04C333.451 25.195 334.546 24.055 335.971 24.055C337.051 24.055 337.951 24.52 338.146 25.765H339.376C339.136 23.77 337.606 23.02 335.971 23.02C333.871 23.02 332.161 24.64 332.161 27.04V27.16C332.161 29.605 333.811 31.135 336.001 31.135ZM346.715 24.205V23.155H340.4V24.205H342.935V31H344.18V24.205H346.715ZM351.439 31.135C353.224 31.135 354.499 30.31 354.784 28.735H353.539C353.374 29.65 352.684 30.1 351.454 30.1C349.834 30.1 348.994 29.125 348.934 27.325H354.844V26.92C354.844 24.115 353.134 23.02 351.319 23.02C349.159 23.02 347.644 24.67 347.644 27.04V27.16C347.644 29.56 349.219 31.135 351.439 31.135ZM353.569 26.32H348.979C349.204 24.925 350.044 24.055 351.319 24.055C352.624 24.055 353.449 24.7 353.569 26.32ZM357.714 24.385L360.279 31H360.849L363.444 24.385V31H364.674V23.155H362.964L360.669 29.05L358.434 23.155H356.679V31H357.714V24.385ZM369.266 31.135C370.421 31.135 371.126 30.745 371.711 30.01V31H372.956V25.825C372.956 23.62 371.591 23.02 370.091 23.02C368.576 23.02 367.151 23.665 366.986 25.465H368.231C368.351 24.52 368.951 24.055 370.031 24.055C371.231 24.055 371.711 24.565 371.711 25.825V26.395H370.586C368.576 26.395 366.656 27.025 366.656 28.825C366.656 30.43 367.811 31.135 369.266 31.135ZM369.386 30.145C368.291 30.145 367.901 29.65 367.901 28.825C367.901 27.685 369.056 27.28 370.631 27.28H371.711V28.255C371.711 29.455 370.706 30.145 369.386 30.145ZM381.336 31.135C382.491 31.135 383.196 30.745 383.781 30.01V31H385.026V25.825C385.026 23.62 383.661 23.02 382.161 23.02C380.646 23.02 379.221 23.665 379.056 25.465H380.301C380.421 24.52 381.021 24.055 382.101 24.055C383.301 24.055 383.781 24.565 383.781 25.825V26.395H382.656C380.646 26.395 378.726 27.025 378.726 28.825C378.726 30.43 379.881 31.135 381.336 31.135ZM381.456 30.145C380.361 30.145 379.971 29.65 379.971 28.825C379.971 27.685 381.126 27.28 382.701 27.28H383.781V28.255C383.781 29.455 382.776 30.145 381.456 30.145ZM387.382 23.155V31H390.457C392.182 31 393.262 30.25 393.262 28.69V28.645C393.262 27.625 392.632 27.1 391.627 26.875C392.512 26.65 392.887 25.9 392.887 25.195V25.15C392.887 23.605 391.597 23.155 390.127 23.155H387.382ZM388.627 24.145H390.112C391.072 24.145 391.582 24.37 391.582 25.21V25.255C391.582 26.11 391.162 26.47 390.127 26.47H388.627V24.145ZM388.627 27.46H390.337C391.417 27.46 391.957 27.82 391.957 28.72V28.765C391.957 29.65 391.432 30.01 390.337 30.01H388.627V27.46ZM400.68 24.205V23.155H394.365V24.205H396.9V31H398.145V24.205H400.68ZM405.464 30.1C403.859 30.1 402.899 28.945 402.899 27.145V27.025C402.899 25.225 403.889 24.055 405.464 24.055C407.024 24.055 408.029 25.225 408.029 27.04V27.145C408.029 28.915 407.039 30.1 405.464 30.1ZM405.449 31.135C407.669 31.135 409.319 29.5 409.319 27.13V27.01C409.319 24.655 407.684 23.02 405.464 23.02C403.244 23.02 401.609 24.67 401.609 27.025V27.145C401.609 29.44 403.214 31.135 405.449 31.135ZM411.246 23.155V33.73H412.491V29.71C412.956 30.49 413.841 31.135 415.146 31.135C417.306 31.135 418.716 29.485 418.716 27.085V26.965C418.716 24.505 417.201 23.02 415.146 23.02C413.991 23.02 412.926 23.71 412.491 24.475V23.155H411.246ZM415.026 30.1C413.496 30.1 412.446 29.14 412.446 27.145V27.025C412.446 25.015 413.556 24.055 415.011 24.055C416.331 24.055 417.426 25.045 417.426 27.025V27.145C417.426 29.065 416.586 30.1 415.026 30.1ZM420.561 31H421.806L425.811 24.955V31H427.056V23.155H425.811L421.806 29.2V23.155H420.561V31ZM434.478 25.195V25.15C434.478 23.755 433.308 23.02 431.898 23.02C430.503 23.02 429.258 23.59 429.063 25.285H430.263C430.443 24.43 430.968 24.055 431.823 24.055C432.783 24.055 433.173 24.535 433.173 25.21V25.255C433.173 26.11 432.753 26.47 431.718 26.47H430.743V27.46H431.928C433.008 27.46 433.548 27.82 433.548 28.72V28.765C433.548 29.605 433.023 30.1 431.868 30.1C430.563 30.1 430.098 29.53 429.993 28.585H428.778C428.853 30.205 429.963 31.135 431.868 31.135C433.743 31.135 434.853 30.115 434.853 28.69V28.645C434.853 27.625 434.163 27.04 433.188 26.875C434.058 26.71 434.478 25.9 434.478 25.195ZM438.963 31.135C440.118 31.135 440.823 30.745 441.408 30.01V31H442.653V25.825C442.653 23.62 441.288 23.02 439.788 23.02C438.273 23.02 436.848 23.665 436.683 25.465H437.928C438.048 24.52 438.648 24.055 439.728 24.055C440.928 24.055 441.408 24.565 441.408 25.825V26.395H440.283C438.273 26.395 436.353 27.025 436.353 28.825C436.353 30.43 437.508 31.135 438.963 31.135ZM439.083 30.145C437.988 30.145 437.598 29.65 437.598 28.825C437.598 27.685 438.753 27.28 440.328 27.28H441.408V28.255C441.408 29.455 440.403 30.145 439.083 30.145ZM451.399 32.905H452.404V29.95H451.204V23.155H449.959V29.95H446.254V23.155H445.009V31H451.309L451.399 32.905ZM453.959 31H455.204L459.209 24.955V31H460.454V23.155H459.209L455.204 29.2V23.155H453.959V31ZM462.822 31H464.067L468.072 24.955V31H469.317V23.155H468.072L464.067 29.2V23.155H462.822V31ZM336.984 53.995L340.464 58H341.979L338.334 53.845L341.694 50.155H340.239L336.984 53.815V50.155H335.739V58H336.984V53.995ZM346.54 57.1C344.935 57.1 343.975 55.945 343.975 54.145V54.025C343.975 52.225 344.965 51.055 346.54 51.055C348.1 51.055 349.105 52.225 349.105 54.04V54.145C349.105 55.915 348.115 57.1 346.54 57.1ZM346.525 58.135C348.745 58.135 350.395 56.5 350.395 54.13V54.01C350.395 51.655 348.76 50.02 346.54 50.02C344.32 50.02 342.685 51.67 342.685 54.025V54.145C342.685 56.44 344.29 58.135 346.525 58.135ZM353.283 51.385L355.848 58H356.418L359.013 51.385V58H360.243V50.155H358.533L356.238 56.05L354.003 50.155H352.248V58H353.283V51.385ZM367.73 51.205V58H368.975V50.155H362.78V58H364.025V51.205H367.73ZM373.551 58.135C374.706 58.135 375.411 57.745 375.996 57.01V58H377.241V52.825C377.241 50.62 375.876 50.02 374.376 50.02C372.861 50.02 371.436 50.665 371.271 52.465H372.516C372.636 51.52 373.236 51.055 374.316 51.055C375.516 51.055 375.996 51.565 375.996 52.825V53.395H374.871C372.861 53.395 370.941 54.025 370.941 55.825C370.941 57.43 372.096 58.135 373.551 58.135ZM373.671 57.145C372.576 57.145 372.186 56.65 372.186 55.825C372.186 54.685 373.341 54.28 374.916 54.28H375.996V55.255C375.996 56.455 374.991 57.145 373.671 57.145ZM384.696 54.505V58H385.941V50.155H384.696V53.455H380.841V50.155H379.596V58H380.841V54.505H384.696ZM388.459 58H389.704L393.709 51.955V58H394.954V50.155H393.709L389.704 56.2V50.155H388.459V58ZM397.321 58H398.566L402.571 51.955V58H403.816V50.155H402.571L398.566 56.2V50.155H397.321V58ZM413.213 47.275L409.523 58H410.753L411.788 54.91H416.213L417.263 58H418.553L414.923 47.275H413.213ZM412.148 53.875L414.008 48.355L415.868 53.875H412.148ZM423.391 56.935H421.921V48.325H423.376C426.331 48.325 427.531 50.065 427.531 52.54V52.66C427.531 55.285 426.136 56.935 423.391 56.935ZM420.616 47.275V58H423.421C427.186 58 428.881 55.645 428.881 52.675V52.54C428.881 49.555 427.126 47.275 423.451 47.275H420.616ZM431.236 47.275V58H432.541V53.2H436.411V52.135H432.541V48.34H437.506V47.275H431.236ZM442.846 58.135C444.976 58.135 446.551 56.77 446.551 54.97C446.551 52.96 445.291 52.21 442.906 51.85C440.716 51.535 440.326 50.965 440.326 49.93C440.326 48.91 441.076 48.19 442.561 48.19C444.061 48.19 444.826 48.73 445.081 50.095H446.251C446.026 48.175 444.721 47.14 442.561 47.14C440.536 47.14 439.111 48.415 439.111 50.05C439.111 51.97 440.446 52.645 442.696 53.005C444.736 53.32 445.291 53.845 445.291 55.06C445.291 56.275 444.226 57.085 442.846 57.085C440.701 57.085 440.176 56.005 440.011 54.73H438.751C438.946 56.56 439.981 58.135 442.846 58.135Z" fill="black"/>
<path d="M344.202 324.055C341.982 324.055 340.242 322.285 340.242 319.69V319.57C340.242 317.005 341.682 315.19 344.172 315.19C346.632 315.19 348.057 317.14 348.057 319.54V319.66C348.057 322.255 346.587 324.055 344.202 324.055ZM344.202 325.135C347.322 325.135 349.407 322.705 349.407 319.675V319.555C349.407 316.54 347.322 314.14 344.172 314.14C341.022 314.14 338.892 316.525 338.892 319.585V319.705C338.892 322.705 341.022 325.135 344.202 325.135ZM354.77 325.135C356.99 325.135 358.64 323.65 358.64 321.175V321.115C358.64 318.895 357.23 317.32 355.04 317.32C353.6 317.32 352.49 318.04 351.965 319.12H351.905C352.07 316.21 352.88 314.695 355.4 314.575L355.625 314.56C356.69 314.515 357.365 314.44 358.01 314.155L357.845 313.105C357.29 313.33 356.69 313.375 355.61 313.435L355.31 313.45C351.56 313.645 350.93 316.675 350.93 320.05V320.53C350.93 323.77 352.535 325.135 354.77 325.135ZM354.785 324.1C353.18 324.1 352.22 322.99 352.22 321.295V321.265C352.22 319.465 353.255 318.355 354.92 318.355C356.525 318.355 357.35 319.465 357.35 321.16V321.19C357.35 323.065 356.36 324.1 354.785 324.1ZM362.079 321.97C362.199 320.815 362.229 319.24 362.274 318.205H365.094V325H366.339V317.155H361.164L361.119 318.835C361.074 319.795 361.044 320.98 360.939 321.895C360.819 322.975 360.699 323.875 360.039 323.875C359.874 323.875 359.799 323.86 359.724 323.845L359.619 323.815V325L359.739 325.045C359.844 325.06 359.979 325.075 360.144 325.075C361.419 325.075 361.899 324.055 362.079 321.97ZM370.911 325.135C372.066 325.135 372.771 324.745 373.356 324.01V325H374.601V319.825C374.601 317.62 373.236 317.02 371.736 317.02C370.221 317.02 368.796 317.665 368.631 319.465H369.876C369.996 318.52 370.596 318.055 371.676 318.055C372.876 318.055 373.356 318.565 373.356 319.825V320.395H372.231C370.221 320.395 368.301 321.025 368.301 322.825C368.301 324.43 369.456 325.135 370.911 325.135ZM371.031 324.145C369.936 324.145 369.546 323.65 369.546 322.825C369.546 321.685 370.701 321.28 372.276 321.28H373.356V322.255C373.356 323.455 372.351 324.145 371.031 324.145ZM381.238 325H382.483V317.155H381.238V320.26C380.833 320.8 380.158 321.13 379.318 321.13C378.223 321.13 377.608 320.515 377.608 319.135V317.155H376.363V319.195C376.363 321.355 377.578 322.21 378.988 322.21C380.053 322.21 380.773 321.835 381.238 321.34V325ZM390.098 321.505V325H391.343V317.155H390.098V320.455H386.243V317.155H384.998V325H386.243V321.505H390.098ZM395.916 325.135C397.071 325.135 397.776 324.745 398.361 324.01V325H399.606V319.825C399.606 317.62 398.241 317.02 396.741 317.02C395.226 317.02 393.801 317.665 393.636 319.465H394.881C395.001 318.52 395.601 318.055 396.681 318.055C397.881 318.055 398.361 318.565 398.361 319.825V320.395H397.236C395.226 320.395 393.306 321.025 393.306 322.825C393.306 324.43 394.461 325.135 395.916 325.135ZM396.036 324.145C394.941 324.145 394.551 323.65 394.551 322.825C394.551 321.685 395.706 321.28 397.281 321.28H398.361V322.255C398.361 323.455 397.356 324.145 396.036 324.145ZM404.571 318.145H406.041V320.98H404.571C403.326 320.98 402.891 320.47 402.891 319.615V319.57C402.891 318.655 403.386 318.145 404.571 318.145ZM402.501 325L404.691 321.925H406.041V325H407.286V317.155H404.646C403.011 317.155 401.646 317.845 401.646 319.57V319.615C401.646 320.935 402.501 321.52 403.461 321.715L401.076 325H402.501ZM418.447 325.135C420.847 325.135 422.557 323.92 422.932 321.445H421.717C421.432 323.2 420.232 324.07 418.477 324.07C416.167 324.07 414.787 322.42 414.787 319.69V319.57C414.787 316.87 416.272 315.145 418.492 315.145C420.337 315.145 421.252 315.985 421.537 317.62H422.827C422.587 315.295 420.712 314.11 418.477 314.11C415.552 314.11 413.437 316.405 413.437 319.585V319.705C413.437 323.005 415.342 325.135 418.447 325.135ZM426.571 321.235C426.736 319.165 426.811 316.72 426.886 315.34H431.086V323.905H425.866C426.331 323.26 426.496 322.33 426.571 321.235ZM424.636 326.95L424.711 325H432.406L432.481 326.95H433.561V323.905H432.361V314.275H425.731C425.716 315.04 425.686 315.805 425.656 316.585C425.611 317.95 425.521 319.63 425.401 321.13C425.236 322.705 424.996 323.665 424.231 323.905H423.556V326.95H424.636ZM440.09 324.055C437.87 324.055 436.13 322.285 436.13 319.69V319.57C436.13 317.005 437.57 315.19 440.06 315.19C442.52 315.19 443.945 317.14 443.945 319.54V319.66C443.945 322.255 442.475 324.055 440.09 324.055ZM440.09 325.135C443.21 325.135 445.295 322.705 445.295 319.675V319.555C445.295 316.54 443.21 314.14 440.06 314.14C436.91 314.14 434.78 316.525 434.78 319.585V319.705C434.78 322.705 436.91 325.135 440.09 325.135ZM357.471 342.34V352H358.776V342.34H361.896V341.275H354.351V342.34H357.471ZM365.857 352.135C367.642 352.135 368.917 351.31 369.202 349.735H367.957C367.792 350.65 367.102 351.1 365.872 351.1C364.252 351.1 363.412 350.125 363.352 348.325H369.262V347.92C369.262 345.115 367.552 344.02 365.737 344.02C363.577 344.02 362.062 345.67 362.062 348.04V348.16C362.062 350.56 363.637 352.135 365.857 352.135ZM367.987 347.32H363.397C363.622 345.925 364.462 345.055 365.737 345.055C367.042 345.055 367.867 345.7 367.987 347.32ZM373.386 352.135C374.541 352.135 375.246 351.745 375.831 351.01V352H377.076V346.825C377.076 344.62 375.711 344.02 374.211 344.02C372.696 344.02 371.271 344.665 371.106 346.465H372.351C372.471 345.52 373.071 345.055 374.151 345.055C375.351 345.055 375.831 345.565 375.831 346.825V347.395H374.706C372.696 347.395 370.776 348.025 370.776 349.825C370.776 351.43 371.931 352.135 373.386 352.135ZM373.506 351.145C372.411 351.145 372.021 350.65 372.021 349.825C372.021 348.685 373.176 348.28 374.751 348.28H375.831V349.255C375.831 350.455 374.826 351.145 373.506 351.145ZM382.953 352.135C384.828 352.135 386.208 350.875 386.373 349.18H385.218C385.098 350.455 384.078 351.1 382.968 351.1C381.453 351.1 380.403 350.095 380.403 348.16V348.04C380.403 346.195 381.498 345.055 382.923 345.055C384.003 345.055 384.903 345.52 385.098 346.765H386.328C386.088 344.77 384.558 344.02 382.923 344.02C380.823 344.02 379.113 345.64 379.113 348.04V348.16C379.113 350.605 380.763 352.135 382.953 352.135ZM388.428 340.405V352H389.673V347.245C389.673 345.835 390.708 345.1 391.863 345.1C393.123 345.1 393.708 345.715 393.708 347.095V352H394.953V347.185C394.953 344.905 393.813 344.02 392.193 344.02C390.888 344.02 390.033 344.665 389.673 345.4V340.405H388.428ZM401.483 352.135C403.643 352.135 405.053 350.485 405.053 348.085V347.965C405.053 345.505 403.538 344.02 401.483 344.02C400.328 344.02 399.263 344.71 398.828 345.475V340.405H397.583V352H398.828V350.71C399.293 351.49 400.208 352.135 401.483 352.135ZM401.363 351.1C399.833 351.1 398.783 350.14 398.783 348.145V348.025C398.783 346.015 399.893 345.055 401.348 345.055C402.668 345.055 403.763 346.045 403.763 348.025V348.145C403.763 350.065 402.923 351.1 401.363 351.1ZM409.128 352.135C410.283 352.135 410.988 351.745 411.573 351.01V352H412.818V346.825C412.818 344.62 411.453 344.02 409.953 344.02C408.438 344.02 407.013 344.665 406.848 346.465H408.093C408.213 345.52 408.813 345.055 409.893 345.055C411.093 345.055 411.573 345.565 411.573 346.825V347.395H410.448C408.438 347.395 406.518 348.025 406.518 349.825C406.518 351.43 407.673 352.135 409.128 352.135ZM409.248 351.145C408.153 351.145 407.763 350.65 407.763 349.825C407.763 348.685 408.918 348.28 410.493 348.28H411.573V349.255C411.573 350.455 410.568 351.145 409.248 351.145ZM417.87 352.135C419.79 352.135 420.75 351.19 420.75 349.75C420.75 348.07 419.61 347.755 417.99 347.425C416.55 347.185 416.16 346.87 416.16 346.18C416.16 345.505 416.745 345.055 417.645 345.055C418.65 345.055 419.115 345.43 419.295 346.285H420.495C420.3 344.59 419.055 344.02 417.66 344.02C416.415 344.02 415.005 344.785 415.005 346.225C415.005 347.59 415.695 348.175 417.735 348.535C418.95 348.76 419.565 349.03 419.565 349.855C419.565 350.695 419.055 351.1 417.855 351.1C416.595 351.1 416.115 350.53 416.01 349.585H414.795C414.87 351.205 415.995 352.135 417.87 352.135ZM426.033 352.135C427.818 352.135 429.093 351.31 429.378 349.735H428.133C427.968 350.65 427.278 351.1 426.048 351.1C424.428 351.1 423.588 350.125 423.528 348.325H429.438V347.92C429.438 345.115 427.728 344.02 425.913 344.02C423.753 344.02 422.238 345.67 422.238 348.04V348.16C422.238 350.56 423.813 352.135 426.033 352.135ZM428.163 347.32H423.573C423.798 345.925 424.638 345.055 425.913 345.055C427.218 345.055 428.043 345.7 428.163 347.32Z" fill="black"/>
<path d="M610.821 321.91V321.85C610.821 319.705 609.441 318.805 607.281 318.805H604.896V315.34H609.951V314.275H603.621V325H607.296C609.441 325 610.821 323.95 610.821 321.91ZM607.266 323.98H604.896V319.825H607.146C608.826 319.825 609.546 320.53 609.546 321.85V321.91C609.546 323.23 608.826 323.98 607.266 323.98ZM612.953 317.155V327.73H614.198V323.71C614.663 324.49 615.548 325.135 616.853 325.135C619.013 325.135 620.423 323.485 620.423 321.085V320.965C620.423 318.505 618.908 317.02 616.853 317.02C615.698 317.02 614.633 317.71 614.198 318.475V317.155H612.953ZM616.733 324.1C615.203 324.1 614.153 323.14 614.153 321.145V321.025C614.153 319.015 615.263 318.055 616.718 318.055C618.038 318.055 619.133 319.045 619.133 321.025V321.145C619.133 323.065 618.293 324.1 616.733 324.1ZM625.567 325.135C627.352 325.135 628.627 324.31 628.912 322.735H627.667C627.502 323.65 626.812 324.1 625.582 324.1C623.962 324.1 623.122 323.125 623.062 321.325H628.972V320.92C628.972 318.115 627.262 317.02 625.447 317.02C623.287 317.02 621.772 318.67 621.772 321.04V321.16C621.772 323.56 623.347 325.135 625.567 325.135ZM627.697 320.32H623.107C623.332 318.925 624.172 318.055 625.447 318.055C626.752 318.055 627.577 318.7 627.697 320.32ZM635.892 321.505V325H637.137V317.155H635.892V320.455H632.037V317.155H630.792V325H632.037V321.505H635.892ZM641.185 321.97C641.305 320.815 641.425 319.195 641.47 318.175H644.35V323.95H640.675C640.93 323.515 641.08 322.885 641.185 321.97ZM639.625 326.905L639.715 325H645.67L645.76 326.905H646.765V323.95H645.565V317.155H640.39C640.375 317.71 640.345 318.28 640.3 318.835C640.24 319.795 640.15 320.98 640.045 321.895C639.925 322.885 639.79 323.8 639.175 323.95H638.62V326.905H639.625ZM648.326 325H649.571L653.576 318.955V325H654.821V317.155H653.576L649.571 323.2V317.155H648.326V325ZM657.279 317.155V327.73H658.524V323.71C658.989 324.49 659.874 325.135 661.179 325.135C663.339 325.135 664.749 323.485 664.749 321.085V320.965C664.749 318.505 663.234 317.02 661.179 317.02C660.024 317.02 658.959 317.71 658.524 318.475V317.155H657.279ZM661.059 324.1C659.529 324.1 658.479 323.14 658.479 321.145V321.025C658.479 319.015 659.589 318.055 661.044 318.055C662.364 318.055 663.459 319.045 663.459 321.025V321.145C663.459 323.065 662.619 324.1 661.059 324.1ZM669.953 324.1C668.348 324.1 667.388 322.945 667.388 321.145V321.025C667.388 319.225 668.378 318.055 669.953 318.055C671.513 318.055 672.518 319.225 672.518 321.04V321.145C672.518 322.915 671.528 324.1 669.953 324.1ZM669.938 325.135C672.158 325.135 673.808 323.5 673.808 321.13V321.01C673.808 318.655 672.173 317.02 669.953 317.02C667.733 317.02 666.098 318.67 666.098 321.025V321.145C666.098 323.44 667.703 325.135 669.938 325.135ZM675.646 317.155V325H678.721C680.446 325 681.526 324.25 681.526 322.69V322.645C681.526 321.625 680.896 321.1 679.891 320.875C680.776 320.65 681.151 319.9 681.151 319.195V319.15C681.151 317.605 679.861 317.155 678.391 317.155H675.646ZM676.891 318.145H678.376C679.336 318.145 679.846 318.37 679.846 319.21V319.255C679.846 320.11 679.426 320.47 678.391 320.47H676.891V318.145ZM676.891 321.46H678.601C679.681 321.46 680.221 321.82 680.221 322.72V322.765C680.221 323.65 679.696 324.01 678.601 324.01H676.891V321.46ZM685.64 325.135C686.795 325.135 687.5 324.745 688.085 324.01V325H689.33V319.825C689.33 317.62 687.965 317.02 686.465 317.02C684.95 317.02 683.525 317.665 683.36 319.465H684.605C684.725 318.52 685.325 318.055 686.405 318.055C687.605 318.055 688.085 318.565 688.085 319.825V320.395H686.96C684.95 320.395 683.03 321.025 683.03 322.825C683.03 324.43 684.185 325.135 685.64 325.135ZM685.76 324.145C684.665 324.145 684.275 323.65 684.275 322.825C684.275 321.685 685.43 321.28 687.005 321.28H688.085V322.255C688.085 323.455 687.08 324.145 685.76 324.145ZM696.786 321.505V325H698.031V317.155H696.786V320.455H692.931V317.155H691.686V325H692.931V321.505H696.786ZM705.648 321.505V325H706.893V317.155H705.648V320.455H701.793V317.155H700.548V325H701.793V321.505H705.648ZM712.77 324.1C711.165 324.1 710.205 322.945 710.205 321.145V321.025C710.205 319.225 711.195 318.055 712.77 318.055C714.33 318.055 715.335 319.225 715.335 321.04V321.145C715.335 322.915 714.345 324.1 712.77 324.1ZM712.755 325.135C714.975 325.135 716.625 323.5 716.625 321.13V321.01C716.625 318.655 714.99 317.02 712.77 317.02C710.55 317.02 708.915 318.67 708.915 321.025V321.145C708.915 323.44 710.52 325.135 712.755 325.135ZM721.763 325.135C723.548 325.135 724.823 324.31 725.108 322.735H723.863C723.698 323.65 723.008 324.1 721.778 324.1C720.158 324.1 719.318 323.125 719.258 321.325H725.168V320.92C725.168 318.115 723.458 317.02 721.643 317.02C719.483 317.02 717.968 318.67 717.968 321.04V321.16C717.968 323.56 719.543 325.135 721.763 325.135ZM723.893 320.32H719.303C719.528 318.925 720.368 318.055 721.643 318.055C722.948 318.055 723.773 318.7 723.893 320.32ZM579.87 345.385L582.435 352H583.005L585.6 345.385V352H586.83V344.155H585.12L582.825 350.05L580.59 344.155H578.835V352H579.87V345.385ZM592.726 351.1C591.121 351.1 590.161 349.945 590.161 348.145V348.025C590.161 346.225 591.151 345.055 592.726 345.055C594.286 345.055 595.291 346.225 595.291 348.04V348.145C595.291 349.915 594.301 351.1 592.726 351.1ZM592.711 352.135C594.931 352.135 596.581 350.5 596.581 348.13V348.01C596.581 345.655 594.946 344.02 592.726 344.02C590.506 344.02 588.871 345.67 588.871 348.025V348.145C588.871 350.44 590.476 352.135 592.711 352.135ZM601.794 352.135C604.014 352.135 605.664 350.65 605.664 348.175V348.115C605.664 345.895 604.254 344.32 602.064 344.32C600.624 344.32 599.514 345.04 598.989 346.12H598.929C599.094 343.21 599.904 341.695 602.424 341.575L602.649 341.56C603.714 341.515 604.389 341.44 605.034 341.155L604.869 340.105C604.314 340.33 603.714 340.375 602.634 340.435L602.334 340.45C598.584 340.645 597.954 343.675 597.954 347.05V347.53C597.954 350.77 599.559 352.135 601.794 352.135ZM601.809 351.1C600.204 351.1 599.244 349.99 599.244 348.295V348.265C599.244 346.465 600.279 345.355 601.944 345.355C603.549 345.355 604.374 346.465 604.374 348.16V348.19C604.374 350.065 603.384 351.1 601.809 351.1ZM607.604 352H608.849L612.854 345.955V352H614.099V344.155H612.854L608.849 350.2V344.155H607.604V352ZM617.966 348.97C618.086 347.815 618.116 346.24 618.161 345.205H620.981V352H622.226V344.155H617.051L617.006 345.835C616.961 346.795 616.931 347.98 616.826 348.895C616.706 349.975 616.586 350.875 615.926 350.875C615.761 350.875 615.686 350.86 615.611 350.845L615.506 350.815V352L615.626 352.045C615.731 352.06 615.866 352.075 616.031 352.075C617.306 352.075 617.786 351.055 617.966 348.97ZM624.742 344.155V352H627.382C629.017 352 630.382 351.34 630.382 349.51V349.465C630.382 347.665 629.017 346.9 627.382 346.9H625.987V344.155H624.742ZM627.457 351.025H625.987V347.89H627.457C628.642 347.89 629.137 348.385 629.137 349.465V349.51C629.137 350.47 628.702 351.025 627.457 351.025ZM637.255 348.505V352H638.5V344.155H637.255V347.455H633.4V344.155H632.155V352H633.4V348.505H637.255ZM644.377 351.1C642.772 351.1 641.812 349.945 641.812 348.145V348.025C641.812 346.225 642.802 345.055 644.377 345.055C645.937 345.055 646.942 346.225 646.942 348.04V348.145C646.942 349.915 645.952 351.1 644.377 351.1ZM644.362 352.135C646.582 352.135 648.232 350.5 648.232 348.13V348.01C648.232 345.655 646.597 344.02 644.377 344.02C642.157 344.02 640.522 345.67 640.522 348.025V348.145C640.522 350.44 642.127 352.135 644.362 352.135ZM653.37 352.135C655.155 352.135 656.43 351.31 656.715 349.735H655.47C655.305 350.65 654.615 351.1 653.385 351.1C651.765 351.1 650.925 350.125 650.865 348.325H656.775V347.92C656.775 345.115 655.065 344.02 653.25 344.02C651.09 344.02 649.575 345.67 649.575 348.04V348.16C649.575 350.56 651.15 352.135 653.37 352.135ZM655.5 347.32H650.91C651.135 345.925 651.975 345.055 653.25 345.055C654.555 345.055 655.38 345.7 655.5 347.32ZM667.515 345.205V352H668.76V344.155H662.565V352H663.81V345.205H667.515ZM671.371 344.155V354.73H672.616V350.71C673.081 351.49 673.966 352.135 675.271 352.135C677.431 352.135 678.841 350.485 678.841 348.085V347.965C678.841 345.505 677.326 344.02 675.271 344.02C674.116 344.02 673.051 344.71 672.616 345.475V344.155H671.371ZM675.151 351.1C673.621 351.1 672.571 350.14 672.571 348.145V348.025C672.571 346.015 673.681 345.055 675.136 345.055C676.456 345.055 677.551 346.045 677.551 348.025V348.145C677.551 350.065 676.711 351.1 675.151 351.1ZM680.685 352H681.93L685.935 345.955V352H687.18V344.155H685.935L681.93 350.2V344.155H680.685V352ZM691.047 348.97C691.167 347.815 691.197 346.24 691.242 345.205H694.062V352H695.307V344.155H690.132L690.087 345.835C690.042 346.795 690.012 347.98 689.907 348.895C689.787 349.975 689.667 350.875 689.007 350.875C688.842 350.875 688.767 350.86 688.692 350.845L688.587 350.815V352L688.707 352.045C688.812 352.06 688.947 352.075 689.112 352.075C690.387 352.075 690.867 351.055 691.047 348.97ZM701.183 351.1C699.578 351.1 698.618 349.945 698.618 348.145V348.025C698.618 346.225 699.608 345.055 701.183 345.055C702.743 345.055 703.748 346.225 703.748 348.04V348.145C703.748 349.915 702.758 351.1 701.183 351.1ZM701.168 352.135C703.388 352.135 705.038 350.5 705.038 348.13V348.01C705.038 345.655 703.403 344.02 701.183 344.02C698.963 344.02 697.328 345.67 697.328 348.025V348.145C697.328 350.44 698.933 352.135 701.168 352.135ZM710.033 347.965V352H711.248V347.965L714.278 352H715.688L712.493 347.83L715.403 344.155H714.053L711.248 347.845V344.155H710.033V347.845L707.228 344.155H705.893L708.803 347.83L705.608 352H707.003L710.033 347.965ZM720.225 352.135C722.01 352.135 723.285 351.31 723.57 349.735H722.325C722.16 350.65 721.47 351.1 720.24 351.1C718.62 351.1 717.78 350.125 717.72 348.325H723.63V347.92C723.63 345.115 721.92 344.02 720.105 344.02C717.945 344.02 716.43 345.67 716.43 348.04V348.16C716.43 350.56 718.005 352.135 720.225 352.135ZM722.355 347.32H717.765C717.99 345.925 718.83 345.055 720.105 345.055C721.41 345.055 722.235 345.7 722.355 347.32ZM730.55 348.505V352H731.795V344.155H730.55V347.455H726.695V344.155H725.45V352H726.695V348.505H730.55ZM734.313 352H735.558L739.563 345.955V352H740.808V344.155H739.563L735.558 350.2V344.155H734.313V352ZM746.475 352.135C748.26 352.135 749.535 351.31 749.82 349.735H748.575C748.41 350.65 747.72 351.1 746.49 351.1C744.87 351.1 744.03 350.125 743.97 348.325H749.88V347.92C749.88 345.115 748.17 344.02 746.355 344.02C744.195 344.02 742.68 345.67 742.68 348.04V348.16C742.68 350.56 744.255 352.135 746.475 352.135ZM748.605 347.32H744.015C744.24 345.925 745.08 345.055 746.355 345.055C747.66 345.055 748.485 345.7 748.605 347.32Z" fill="black"/>
<path d="M302.363 170.275V181H303.668V176.635H305.408C307.448 176.635 309.158 175.75 309.158 173.47V173.41C309.158 171.175 307.448 170.275 305.408 170.275H302.363ZM305.498 175.6H303.668V171.325H305.498C306.953 171.325 307.853 171.895 307.853 173.41V173.47C307.853 174.85 307.043 175.6 305.498 175.6ZM312.88 181.135C314.035 181.135 314.74 180.745 315.325 180.01V181H316.57V175.825C316.57 173.62 315.205 173.02 313.705 173.02C312.19 173.02 310.765 173.665 310.6 175.465H311.845C311.965 174.52 312.565 174.055 313.645 174.055C314.845 174.055 315.325 174.565 315.325 175.825V176.395H314.2C312.19 176.395 310.27 177.025 310.27 178.825C310.27 180.43 311.425 181.135 312.88 181.135ZM313 180.145C311.905 180.145 311.515 179.65 311.515 178.825C311.515 177.685 312.67 177.28 314.245 177.28H315.325V178.255C315.325 179.455 314.32 180.145 313 180.145ZM323.981 175.195V175.15C323.981 173.755 322.811 173.02 321.401 173.02C320.006 173.02 318.761 173.59 318.566 175.285H319.766C319.946 174.43 320.471 174.055 321.326 174.055C322.286 174.055 322.676 174.535 322.676 175.21V175.255C322.676 176.11 322.256 176.47 321.221 176.47H320.246V177.46H321.431C322.511 177.46 323.051 177.82 323.051 178.72V178.765C323.051 179.605 322.526 180.1 321.371 180.1C320.066 180.1 319.601 179.53 319.496 178.585H318.281C318.356 180.205 319.466 181.135 321.371 181.135C323.246 181.135 324.356 180.115 324.356 178.69V178.645C324.356 177.625 323.666 177.04 322.691 176.875C323.561 176.71 323.981 175.9 323.981 175.195ZM326.428 173.155V183.73H327.673V179.71C328.138 180.49 329.023 181.135 330.328 181.135C332.488 181.135 333.898 179.485 333.898 177.085V176.965C333.898 174.505 332.383 173.02 330.328 173.02C329.173 173.02 328.108 173.71 327.673 174.475V173.155H326.428ZM330.208 180.1C328.678 180.1 327.628 179.14 327.628 177.145V177.025C327.628 175.015 328.738 174.055 330.193 174.055C331.513 174.055 332.608 175.045 332.608 177.025V177.145C332.608 179.065 331.768 180.1 330.208 180.1ZM337.797 181.135C338.952 181.135 339.657 180.745 340.242 180.01V181H341.487V175.825C341.487 173.62 340.122 173.02 338.622 173.02C337.107 173.02 335.682 173.665 335.517 175.465H336.762C336.882 174.52 337.482 174.055 338.562 174.055C339.762 174.055 340.242 174.565 340.242 175.825V176.395H339.117C337.107 176.395 335.187 177.025 335.187 178.825C335.187 180.43 336.342 181.135 337.797 181.135ZM337.917 180.145C336.822 180.145 336.432 179.65 336.432 178.825C336.432 177.685 337.587 177.28 339.162 177.28H340.242V178.255C340.242 179.455 339.237 180.145 337.917 180.145ZM347.218 181.135C349.438 181.135 351.088 179.65 351.088 177.175V177.115C351.088 174.895 349.678 173.32 347.488 173.32C346.048 173.32 344.938 174.04 344.413 175.12H344.353C344.518 172.21 345.328 170.695 347.848 170.575L348.073 170.56C349.138 170.515 349.813 170.44 350.458 170.155L350.293 169.105C349.738 169.33 349.138 169.375 348.058 169.435L347.758 169.45C344.008 169.645 343.378 172.675 343.378 176.05V176.53C343.378 179.77 344.983 181.135 347.218 181.135ZM347.233 180.1C345.628 180.1 344.668 178.99 344.668 177.295V177.265C344.668 175.465 345.703 174.355 347.368 174.355C348.973 174.355 349.798 175.465 349.798 177.16V177.19C349.798 179.065 348.808 180.1 347.233 180.1ZM356.388 180.1C354.783 180.1 353.823 178.945 353.823 177.145V177.025C353.823 175.225 354.813 174.055 356.388 174.055C357.948 174.055 358.953 175.225 358.953 177.04V177.145C358.953 178.915 357.963 180.1 356.388 180.1ZM356.373 181.135C358.593 181.135 360.243 179.5 360.243 177.13V177.01C360.243 174.655 358.608 173.02 356.388 173.02C354.168 173.02 352.533 174.67 352.533 177.025V177.145C352.533 179.44 354.138 181.135 356.373 181.135ZM367.292 174.205V173.155H360.977V174.205H363.512V181H364.757V174.205H367.292ZM370.991 181.135C372.146 181.135 372.851 180.745 373.436 180.01V181H374.681V175.825C374.681 173.62 373.316 173.02 371.816 173.02C370.301 173.02 368.876 173.665 368.711 175.465H369.956C370.076 174.52 370.676 174.055 371.756 174.055C372.956 174.055 373.436 174.565 373.436 175.825V176.395H372.311C370.301 176.395 368.381 177.025 368.381 178.825C368.381 180.43 369.536 181.135 370.991 181.135ZM371.111 180.145C370.016 180.145 369.626 179.65 369.626 178.825C369.626 177.685 370.781 177.28 372.356 177.28H373.436V178.255C373.436 179.455 372.431 180.145 371.111 180.145ZM382.136 177.505V181H383.381V173.155H382.136V176.455H378.281V173.155H377.036V181H378.281V177.505H382.136ZM390.999 177.505V181H392.244V173.155H390.999V176.455H387.144V173.155H385.899V181H387.144V177.505H390.999ZM401.511 173.155V181H402.756V173.155H401.511ZM394.761 173.155V181H397.401C399.036 181 400.401 180.235 400.401 178.435V178.39C400.401 176.56 399.036 175.9 397.401 175.9H396.006V173.155H394.761ZM397.476 180.01H396.006V176.875H397.476C398.721 176.875 399.156 177.43 399.156 178.39V178.435C399.156 179.515 398.661 180.01 397.476 180.01ZM408.504 171.715C409.599 171.715 410.469 170.875 410.544 169.735H409.494C409.434 170.335 409.149 170.845 408.504 170.845C407.904 170.845 407.649 170.32 407.604 169.735H406.524C406.569 170.875 407.439 171.715 408.504 171.715ZM405.279 181H406.524L410.529 174.955V181H411.774V173.155H410.529L406.524 179.2V173.155H405.279V181ZM420.391 180.19L418.906 183.73H420.166L424.501 173.155H423.226L421.051 178.78L418.651 173.155H417.316L420.391 180.19ZM430.625 181H431.87V173.155H430.625V176.26C430.22 176.8 429.545 177.13 428.705 177.13C427.61 177.13 426.995 176.515 426.995 175.135V173.155H425.75V175.195C425.75 177.355 426.965 178.21 428.375 178.21C429.44 178.21 430.16 177.835 430.625 177.34V181ZM437.685 181.135C439.47 181.135 440.745 180.31 441.03 178.735H439.785C439.62 179.65 438.93 180.1 437.7 180.1C436.08 180.1 435.24 179.125 435.18 177.325H441.09V176.92C441.09 174.115 439.38 173.02 437.565 173.02C435.405 173.02 433.89 174.67 433.89 177.04V177.16C433.89 179.56 435.465 181.135 437.685 181.135ZM439.815 176.32H435.225C435.45 174.925 436.29 174.055 437.565 174.055C438.87 174.055 439.695 174.7 439.815 176.32ZM446.285 181.135C448.505 181.135 450.155 179.65 450.155 177.175V177.115C450.155 174.895 448.745 173.32 446.555 173.32C445.115 173.32 444.005 174.04 443.48 175.12H443.42C443.585 172.21 444.395 170.695 446.915 170.575L447.14 170.56C448.205 170.515 448.88 170.44 449.525 170.155L449.36 169.105C448.805 169.33 448.205 169.375 447.125 169.435L446.825 169.45C443.075 169.645 442.445 172.675 442.445 176.05V176.53C442.445 179.77 444.05 181.135 446.285 181.135ZM446.3 180.1C444.695 180.1 443.735 178.99 443.735 177.295V177.265C443.735 175.465 444.77 174.355 446.435 174.355C448.04 174.355 448.865 175.465 448.865 177.16V177.19C448.865 179.065 447.875 180.1 446.3 180.1ZM457.195 177.505V181H458.44V173.155H457.195V176.455H453.34V173.155H452.095V181H453.34V177.505H457.195ZM467.707 173.155V181H468.952V173.155H467.707ZM460.957 173.155V181H463.597C465.232 181 466.597 180.235 466.597 178.435V178.39C466.597 176.56 465.232 175.9 463.597 175.9H462.202V173.155H460.957ZM463.672 180.01H462.202V176.875H463.672C464.917 176.875 465.352 177.43 465.352 178.39V178.435C465.352 179.515 464.857 180.01 463.672 180.01ZM474.7 171.715C475.795 171.715 476.665 170.875 476.74 169.735H475.69C475.63 170.335 475.345 170.845 474.7 170.845C474.1 170.845 473.845 170.32 473.8 169.735H472.72C472.765 170.875 473.635 171.715 474.7 171.715ZM471.475 181H472.72L476.725 174.955V181H477.97V173.155H476.725L472.72 179.2V173.155H471.475V181ZM370.934 201.205V208H372.179V200.155H365.984V208H367.229V201.205H370.934ZM378.06 207.1C376.455 207.1 375.495 205.945 375.495 204.145V204.025C375.495 202.225 376.485 201.055 378.06 201.055C379.62 201.055 380.625 202.225 380.625 204.04V204.145C380.625 205.915 379.635 207.1 378.06 207.1ZM378.045 208.135C380.265 208.135 381.915 206.5 381.915 204.13V204.01C381.915 201.655 380.28 200.02 378.06 200.02C375.84 200.02 374.205 201.67 374.205 204.025V204.145C374.205 206.44 375.81 208.135 378.045 208.135ZM383.843 200.155V210.73H385.088V206.71C385.553 207.49 386.438 208.135 387.743 208.135C389.903 208.135 391.313 206.485 391.313 204.085V203.965C391.313 201.505 389.798 200.02 387.743 200.02C386.588 200.02 385.523 200.71 385.088 201.475V200.155H383.843ZM387.623 207.1C386.093 207.1 385.043 206.14 385.043 204.145V204.025C385.043 202.015 386.153 201.055 387.608 201.055C388.928 201.055 390.023 202.045 390.023 204.025V204.145C390.023 206.065 389.183 207.1 387.623 207.1ZM398.515 201.205V200.155H392.2V201.205H394.735V208H395.98V201.205H398.515ZM402.214 208.135C403.369 208.135 404.074 207.745 404.659 207.01V208H405.904V202.825C405.904 200.62 404.539 200.02 403.039 200.02C401.524 200.02 400.099 200.665 399.934 202.465H401.179C401.299 201.52 401.899 201.055 402.979 201.055C404.179 201.055 404.659 201.565 404.659 202.825V203.395H403.534C401.524 203.395 399.604 204.025 399.604 205.825C399.604 207.43 400.759 208.135 402.214 208.135ZM402.334 207.145C401.239 207.145 400.849 206.65 400.849 205.825C400.849 204.685 402.004 204.28 403.579 204.28H404.659V205.255C404.659 206.455 403.654 207.145 402.334 207.145ZM409.76 204.97C409.88 203.815 409.91 202.24 409.955 201.205H412.775V208H414.02V200.155H408.845L408.8 201.835C408.755 202.795 408.725 203.98 408.62 204.895C408.5 205.975 408.38 206.875 407.72 206.875C407.555 206.875 407.48 206.86 407.405 206.845L407.3 206.815V208L407.42 208.045C407.525 208.06 407.66 208.075 407.825 208.075C409.1 208.075 409.58 207.055 409.76 204.97Z" fill="white"/>
<path d="M34.2256 156.275V167H37.9006C40.0456 167 41.4256 166.025 41.4256 164V163.94C41.4256 162.545 40.8406 161.75 39.2806 161.375C40.4956 160.955 40.9006 160.085 40.9006 159.11V159.05C40.9006 156.935 39.4456 156.275 37.4506 156.275H34.2256ZM37.8706 165.98H35.5006V161.975H37.6906C39.4306 161.975 40.1506 162.605 40.1506 163.925V163.985C40.1506 165.305 39.4306 165.98 37.8706 165.98ZM37.4506 160.955H35.5006V157.295H37.4206C38.9206 157.295 39.6256 157.79 39.6256 159.005V159.065C39.6256 160.385 39.0256 160.955 37.4506 160.955ZM48.4767 163.505V167H49.7217V159.155H48.4767V162.455H44.6217V159.155H43.3767V167H44.6217V163.505H48.4767ZM54.519 166.19L53.034 169.73H54.294L58.629 159.155H57.354L55.179 164.78L52.779 159.155H51.444L54.519 166.19ZM65.6835 160.205V159.155H59.3685V160.205H61.9035V167H63.1485V160.205H65.6835ZM67.4901 159.155V169.73H68.7351V165.71C69.2001 166.49 70.0851 167.135 71.3901 167.135C73.5501 167.135 74.9601 165.485 74.9601 163.085V162.965C74.9601 160.505 73.4451 159.02 71.3901 159.02C70.2351 159.02 69.1701 159.71 68.7351 160.475V159.155H67.4901ZM71.2701 166.1C69.7401 166.1 68.6901 165.14 68.6901 163.145V163.025C68.6901 161.015 69.8001 160.055 71.2551 160.055C72.5751 160.055 73.6701 161.045 73.6701 163.025V163.145C73.6701 165.065 72.8301 166.1 71.2701 166.1ZM76.8044 167H78.0494L82.0544 160.955V167H83.2994V159.155H82.0544L78.0494 165.2V159.155H76.8044V167ZM86.9117 162.995L90.3917 167H91.9067L88.2617 162.845L91.6217 159.155H90.1667L86.9117 162.815V159.155H85.6667V167H86.9117V162.995ZM96.4681 166.1C94.8631 166.1 93.9031 164.945 93.9031 163.145V163.025C93.9031 161.225 94.8931 160.055 96.4681 160.055C98.0281 160.055 99.0331 161.225 99.0331 163.04V163.145C99.0331 164.915 98.0431 166.1 96.4681 166.1ZM96.4531 167.135C98.6731 167.135 100.323 165.5 100.323 163.13V163.01C100.323 160.655 98.6881 159.02 96.4681 159.02C94.2481 159.02 92.6131 160.67 92.6131 163.025V163.145C92.6131 165.44 94.2181 167.135 96.4531 167.135ZM102.251 159.155V169.73H103.496V165.71C103.961 166.49 104.846 167.135 106.151 167.135C108.311 167.135 109.721 165.485 109.721 163.085V162.965C109.721 160.505 108.206 159.02 106.151 159.02C104.996 159.02 103.931 159.71 103.496 160.475V159.155H102.251ZM106.031 166.1C104.501 166.1 103.451 165.14 103.451 163.145V163.025C103.451 161.015 104.561 160.055 106.016 160.055C107.336 160.055 108.431 161.045 108.431 163.025V163.145C108.431 165.065 107.591 166.1 106.031 166.1ZM116.515 160.205V167H117.76V159.155H111.565V167H112.81V160.205H116.515ZM123.641 166.1C122.036 166.1 121.076 164.945 121.076 163.145V163.025C121.076 161.225 122.066 160.055 123.641 160.055C125.201 160.055 126.206 161.225 126.206 163.04V163.145C126.206 164.915 125.216 166.1 123.641 166.1ZM123.626 167.135C125.846 167.135 127.496 165.5 127.496 163.13V163.01C127.496 160.655 125.861 159.02 123.641 159.02C121.421 159.02 119.786 160.67 119.786 163.025V163.145C119.786 165.44 121.391 167.135 123.626 167.135ZM129.424 159.155V169.73H130.669V165.71C131.134 166.49 132.019 167.135 133.324 167.135C135.484 167.135 136.894 165.485 136.894 163.085V162.965C136.894 160.505 135.379 159.02 133.324 159.02C132.169 159.02 131.104 159.71 130.669 160.475V159.155H129.424ZM133.204 166.1C131.674 166.1 130.624 165.14 130.624 163.145V163.025C130.624 161.015 131.734 160.055 133.189 160.055C134.509 160.055 135.604 161.045 135.604 163.025V163.145C135.604 165.065 134.764 166.1 133.204 166.1ZM140.793 167.135C141.948 167.135 142.653 166.745 143.238 166.01V167H144.483V161.825C144.483 159.62 143.118 159.02 141.618 159.02C140.103 159.02 138.678 159.665 138.513 161.465H139.758C139.878 160.52 140.478 160.055 141.558 160.055C142.758 160.055 143.238 160.565 143.238 161.825V162.395H142.113C140.103 162.395 138.183 163.025 138.183 164.825C138.183 166.43 139.338 167.135 140.793 167.135ZM140.913 166.145C139.818 166.145 139.428 165.65 139.428 164.825C139.428 163.685 140.583 163.28 142.158 163.28H143.238V164.255C143.238 165.455 142.233 166.145 140.913 166.145ZM152.124 160.205V159.155H145.809V160.205H148.344V167H149.589V160.205H152.124ZM153.841 167H155.086L159.091 160.955V167H160.336V159.155H159.091L155.086 165.2V159.155H153.841V167ZM162.703 159.155V167H165.778C167.503 167 168.583 166.25 168.583 164.69V164.645C168.583 163.625 167.953 163.1 166.948 162.875C167.833 162.65 168.208 161.9 168.208 161.195V161.15C168.208 159.605 166.918 159.155 165.448 159.155H162.703ZM163.948 160.145H165.433C166.393 160.145 166.903 160.37 166.903 161.21V161.255C166.903 162.11 166.483 162.47 165.448 162.47H163.948V160.145ZM163.948 163.46H165.658C166.738 163.46 167.278 163.82 167.278 164.72V164.765C167.278 165.65 166.753 166.01 165.658 166.01H163.948V163.46ZM175.669 163.505V167H176.914V159.155H175.669V162.455H171.814V159.155H170.569V167H171.814V163.505H175.669ZM186.181 159.155V167H187.426V159.155H186.181ZM179.431 159.155V167H182.071C183.706 167 185.071 166.235 185.071 164.435V164.39C185.071 162.56 183.706 161.9 182.071 161.9H180.676V159.155H179.431ZM182.146 166.01H180.676V162.875H182.146C183.391 162.875 183.826 163.43 183.826 164.39V164.435C183.826 165.515 183.331 166.01 182.146 166.01ZM193.249 167.135C195.034 167.135 196.309 166.31 196.594 164.735H195.349C195.184 165.65 194.494 166.1 193.264 166.1C191.644 166.1 190.804 165.125 190.744 163.325H196.654V162.92C196.654 160.115 194.944 159.02 193.129 159.02C190.969 159.02 189.454 160.67 189.454 163.04V163.16C189.454 165.56 191.029 167.135 193.249 167.135ZM195.379 162.32H190.789C191.014 160.925 191.854 160.055 193.129 160.055C194.434 160.055 195.259 160.7 195.379 162.32ZM52.1782 194.135C54.0532 194.135 55.4332 192.875 55.5982 191.18H54.4432C54.3232 192.455 53.3032 193.1 52.1932 193.1C50.6782 193.1 49.6282 192.095 49.6282 190.16V190.04C49.6282 188.195 50.7232 187.055 52.1482 187.055C53.2282 187.055 54.1282 187.52 54.3232 188.765H55.5532C55.3132 186.77 53.7832 186.02 52.1482 186.02C50.0482 186.02 48.3382 187.64 48.3382 190.04V190.16C48.3382 192.605 49.9882 194.135 52.1782 194.135ZM57.3879 194H58.6329L62.6379 187.955V194H63.8829V186.155H62.6379L58.6329 192.2V186.155H57.3879V194ZM69.5952 194.135C71.4702 194.135 72.8502 192.875 73.0152 191.18H71.8602C71.7402 192.455 70.7202 193.1 69.6102 193.1C68.0952 193.1 67.0452 192.095 67.0452 190.16V190.04C67.0452 188.195 68.1402 187.055 69.5652 187.055C70.6452 187.055 71.5452 187.52 71.7402 188.765H72.9702C72.7302 186.77 71.2002 186.02 69.5652 186.02C67.4652 186.02 65.7552 187.64 65.7552 190.04V190.16C65.7552 192.605 67.4052 194.135 69.5952 194.135ZM80.3099 187.205V186.155H73.9949V187.205H76.5299V194H77.7749V187.205H80.3099ZM85.0336 194.135C86.8186 194.135 88.0936 193.31 88.3786 191.735H87.1336C86.9686 192.65 86.2786 193.1 85.0486 193.1C83.4286 193.1 82.5886 192.125 82.5286 190.325H88.4386V189.92C88.4386 187.115 86.7286 186.02 84.9136 186.02C82.7536 186.02 81.2386 187.67 81.2386 190.04V190.16C81.2386 192.56 82.8136 194.135 85.0336 194.135ZM87.1636 189.32H82.5736C82.7986 187.925 83.6386 187.055 84.9136 187.055C86.2186 187.055 87.0436 187.7 87.1636 189.32ZM91.309 187.385L93.874 194H94.444L97.039 187.385V194H98.269V186.155H96.559L94.264 192.05L92.029 186.155H90.274V194H91.309V187.385ZM107.556 186.155V194H108.801V186.155H107.556ZM100.806 186.155V194H103.446C105.081 194 106.446 193.235 106.446 191.435V191.39C106.446 189.56 105.081 188.9 103.446 188.9H102.051V186.155H100.806ZM103.521 193.01H102.051V189.875H103.521C104.766 189.875 105.201 190.43 105.201 191.39V191.435C105.201 192.515 104.706 193.01 103.521 193.01ZM117.408 196.22H118.653C117.303 194.54 116.223 192.41 116.223 189.32C116.223 186.245 117.288 184.085 118.653 182.405H117.408C116.013 184.04 114.918 186.335 114.918 189.32C114.918 192.305 116.013 194.63 117.408 196.22ZM122.028 184.565V194H123.333V183.275H122.118L119.628 185.075V186.29L122.028 184.565ZM131.135 194.135C133.535 194.135 135.245 192.92 135.62 190.445H134.405C134.12 192.2 132.92 193.07 131.165 193.07C128.855 193.07 127.475 191.42 127.475 188.69V188.57C127.475 185.87 128.96 184.145 131.18 184.145C133.025 184.145 133.94 184.985 134.225 186.62H135.515C135.275 184.295 133.4 183.11 131.165 183.11C128.24 183.11 126.125 185.405 126.125 188.585V188.705C126.125 192.005 128.03 194.135 131.135 194.135ZM136.519 195.425L137.329 195.845L139.174 192.71L137.959 192.14L136.519 195.425ZM150.193 194.135C152.593 194.135 154.303 192.92 154.678 190.445H153.463C153.178 192.2 151.978 193.07 150.223 193.07C147.913 193.07 146.533 191.42 146.533 188.69V188.57C146.533 185.87 148.018 184.145 150.238 184.145C152.083 184.145 152.998 184.985 153.283 186.62H154.573C154.333 184.295 152.458 183.11 150.223 183.11C147.298 183.11 145.183 185.405 145.183 188.585V188.705C145.183 192.005 147.088 194.135 150.193 194.135ZM156.84 183.275V194H158.145V189.335H159.795L162.99 194H164.445L161.16 189.245C162.63 188.975 163.815 188.075 163.815 186.32V186.26C163.815 184.115 162.105 183.275 160.065 183.275H156.84ZM160.155 188.3H158.145V184.325H160.155C161.61 184.325 162.51 184.805 162.51 186.26V186.32C162.51 187.64 161.7 188.3 160.155 188.3ZM166.435 183.275V194H167.635V184.97L171.31 194H171.715L175.27 184.97V194H176.575V183.275H174.775L171.565 191.63L168.25 183.275H166.435ZM178.648 195.425L179.458 195.845L181.303 192.71L180.088 192.14L178.648 195.425ZM60.4223 221H61.7273L67.5173 212.075V221H68.8223V210.275H67.5173L61.7273 219.2V210.275H60.4223V221ZM76.5358 217.505V221H77.7808V213.155H76.5358V216.455H72.6808V213.155H71.4358V221H72.6808V217.505H76.5358ZM85.8031 214.205V213.155H79.4881V214.205H82.0231V221H83.2681V214.205H85.8031ZM87.6098 213.155V223.73H88.8548V219.71C89.3198 220.49 90.2048 221.135 91.5098 221.135C93.6698 221.135 95.0798 219.485 95.0798 217.085V216.965C95.0798 214.505 93.5648 213.02 91.5098 213.02C90.3548 213.02 89.2898 213.71 88.8548 214.475V213.155H87.6098ZM91.3898 220.1C89.8598 220.1 88.8098 219.14 88.8098 217.145V217.025C88.8098 215.015 89.9198 214.055 91.3748 214.055C92.6948 214.055 93.7898 215.045 93.7898 217.025V217.145C93.7898 219.065 92.9498 220.1 91.3898 220.1ZM98.9791 221.135C100.134 221.135 100.839 220.745 101.424 220.01V221H102.669V215.825C102.669 213.62 101.304 213.02 99.8041 213.02C98.2891 213.02 96.8641 213.665 96.6991 215.465H97.9441C98.0641 214.52 98.6641 214.055 99.7441 214.055C100.944 214.055 101.424 214.565 101.424 215.825V216.395H100.299C98.2891 216.395 96.3691 217.025 96.3691 218.825C96.3691 220.43 97.5241 221.135 98.9791 221.135ZM99.0991 220.145C98.0041 220.145 97.6141 219.65 97.6141 218.825C97.6141 217.685 98.7691 217.28 100.344 217.28H101.424V218.255C101.424 219.455 100.419 220.145 99.0991 220.145ZM108.37 221.135C110.245 221.135 111.625 219.875 111.79 218.18H110.635C110.515 219.455 109.495 220.1 108.385 220.1C106.87 220.1 105.82 219.095 105.82 217.16V217.04C105.82 215.195 106.915 214.055 108.34 214.055C109.42 214.055 110.32 214.52 110.515 215.765H111.745C111.505 213.77 109.975 213.02 108.34 213.02C106.24 213.02 104.53 214.64 104.53 217.04V217.16C104.53 219.605 106.18 221.135 108.37 221.135ZM115.634 221.135C116.789 221.135 117.494 220.745 118.079 220.01V221H119.324V215.825C119.324 213.62 117.959 213.02 116.459 213.02C114.944 213.02 113.519 213.665 113.354 215.465H114.599C114.719 214.52 115.319 214.055 116.399 214.055C117.599 214.055 118.079 214.565 118.079 215.825V216.395H116.954C114.944 216.395 113.024 217.025 113.024 218.825C113.024 220.43 114.179 221.135 115.634 221.135ZM115.754 220.145C114.659 220.145 114.269 219.65 114.269 218.825C114.269 217.685 115.424 217.28 116.999 217.28H118.079V218.255C118.079 219.455 117.074 220.145 115.754 220.145ZM124.905 211.715C126 211.715 126.87 210.875 126.945 209.735H125.895C125.835 210.335 125.55 210.845 124.905 210.845C124.305 210.845 124.05 210.32 124.005 209.735H122.925C122.97 210.875 123.84 211.715 124.905 211.715ZM121.68 221H122.925L126.93 214.955V221H128.175V213.155H126.93L122.925 219.2V213.155H121.68V221ZM136.047 214.205V213.155H129.732V214.205H132.267V221H133.512V214.205H136.047ZM135.933 222.425L136.743 222.845L138.588 219.71L137.373 219.14L135.933 222.425ZM149.892 214.205V221H151.137V213.155H144.942V221H146.187V214.205H149.892ZM153.747 213.155V223.73H154.992V219.71C155.457 220.49 156.342 221.135 157.647 221.135C159.807 221.135 161.217 219.485 161.217 217.085V216.965C161.217 214.505 159.702 213.02 157.647 213.02C156.492 213.02 155.427 213.71 154.992 214.475V213.155H153.747ZM157.527 220.1C155.997 220.1 154.947 219.14 154.947 217.145V217.025C154.947 215.015 156.057 214.055 157.512 214.055C158.832 214.055 159.927 215.045 159.927 217.025V217.145C159.927 219.065 159.087 220.1 157.527 220.1ZM163.714 221.075C164.239 221.075 164.674 220.655 164.674 220.115C164.674 219.575 164.239 219.155 163.714 219.155C163.189 219.155 162.754 219.575 162.754 220.115C162.754 220.655 163.189 221.075 163.714 221.075ZM166.308 223.22H167.553C168.933 221.6 170.043 219.29 170.043 216.305C170.043 213.29 168.918 211.055 167.553 209.405H166.308C167.658 211.085 168.738 213.215 168.738 216.305C168.738 219.38 167.673 221.54 166.308 223.22Z" fill="black"/>
<path d="M614.04 170.275V181H615.345V171.385H620.16V170.275H614.04ZM624.164 181.135C625.949 181.135 627.224 180.31 627.509 178.735H626.264C626.099 179.65 625.409 180.1 624.179 180.1C622.559 180.1 621.719 179.125 621.659 177.325H627.569V176.92C627.569 174.115 625.859 173.02 624.044 173.02C621.884 173.02 620.369 174.67 620.369 177.04V177.16C620.369 179.56 621.944 181.135 624.164 181.135ZM626.294 176.32H621.704C621.929 174.925 622.769 174.055 624.044 174.055C625.349 174.055 626.174 174.7 626.294 176.32ZM632.615 171.715C633.71 171.715 634.58 170.875 634.655 169.735H633.605C633.545 170.335 633.26 170.845 632.615 170.845C632.015 170.845 631.76 170.32 631.715 169.735H630.635C630.68 170.875 631.55 171.715 632.615 171.715ZM629.39 181H630.635L634.64 174.955V181H635.885V173.155H634.64L630.635 179.2V173.155H629.39V181ZM639.302 174.385L641.867 181H642.437L645.032 174.385V181H646.262V173.155H644.552L642.257 179.05L640.022 173.155H638.267V181H639.302V174.385ZM648.799 181H650.044L654.049 174.955V181H655.294V173.155H654.049L650.044 179.2V173.155H648.799V181ZM662.326 173.035V169.405H661.096V173.035C658.861 173.155 657.076 174.49 657.076 177.025V177.145C657.076 179.665 658.876 181 661.096 181.12V183.73H662.326V181.12C664.561 181 666.346 179.665 666.346 177.13V177.01C666.346 174.49 664.546 173.155 662.326 173.035ZM661.096 173.98V180.16C659.536 180.115 658.351 179.08 658.351 177.115V177.01C658.351 175.075 659.536 174.055 661.096 173.98ZM662.326 180.175V173.995C663.886 174.07 665.071 175.045 665.071 177.04V177.145C665.071 179.05 663.886 180.13 662.326 180.175ZM668.281 181H669.526L673.531 174.955V181H674.776V173.155H673.531L669.526 179.2V173.155H668.281V181ZM678.389 176.995L681.869 181H683.384L679.739 176.845L683.099 173.155H681.644L678.389 176.815V173.155H677.144V181H678.389V176.995ZM686.86 181.135C688.015 181.135 688.72 180.745 689.305 180.01V181H690.55V175.825C690.55 173.62 689.185 173.02 687.685 173.02C686.17 173.02 684.745 173.665 684.58 175.465H685.825C685.945 174.52 686.545 174.055 687.625 174.055C688.825 174.055 689.305 174.565 689.305 175.825V176.395H688.18C686.17 176.395 684.25 177.025 684.25 178.825C684.25 180.43 685.405 181.135 686.86 181.135ZM686.98 180.145C685.885 180.145 685.495 179.65 685.495 178.825C685.495 177.685 686.65 177.28 688.225 177.28H689.305V178.255C689.305 179.455 688.3 180.145 686.98 180.145ZM699.296 182.905H700.301V179.95H699.101V173.155H697.856V179.95H694.151V173.155H692.906V181H699.206L699.296 182.905ZM701.856 181H703.101L707.106 174.955V181H708.351V173.155H707.106L703.101 179.2V173.155H701.856V181ZM713.328 174.145H714.798V176.98H713.328C712.083 176.98 711.648 176.47 711.648 175.615V175.57C711.648 174.655 712.143 174.145 713.328 174.145ZM711.258 181L713.448 177.925H714.798V181H716.043V173.155H713.403C711.768 173.155 710.403 173.845 710.403 175.57V175.615C710.403 176.935 711.258 177.52 712.218 177.715L709.833 181H711.258ZM635.423 207.1C633.818 207.1 632.858 205.945 632.858 204.145V204.025C632.858 202.225 633.848 201.055 635.423 201.055C636.983 201.055 637.988 202.225 637.988 204.04V204.145C637.988 205.915 636.998 207.1 635.423 207.1ZM635.408 208.135C637.628 208.135 639.278 206.5 639.278 204.13V204.01C639.278 201.655 637.643 200.02 635.423 200.02C633.203 200.02 631.568 201.67 631.568 204.025V204.145C631.568 206.44 633.173 208.135 635.408 208.135ZM644.491 208.135C646.711 208.135 648.361 206.65 648.361 204.175V204.115C648.361 201.895 646.951 200.32 644.761 200.32C643.321 200.32 642.211 201.04 641.686 202.12H641.626C641.791 199.21 642.601 197.695 645.121 197.575L645.346 197.56C646.411 197.515 647.086 197.44 647.731 197.155L647.566 196.105C647.011 196.33 646.411 196.375 645.331 196.435L645.031 196.45C641.281 196.645 640.651 199.675 640.651 203.05V203.53C640.651 206.77 642.256 208.135 644.491 208.135ZM644.506 207.1C642.901 207.1 641.941 205.99 641.941 204.295V204.265C641.941 202.465 642.976 201.355 644.641 201.355C646.246 201.355 647.071 202.465 647.071 204.16V204.19C647.071 206.065 646.081 207.1 644.506 207.1ZM652.361 207.19L650.876 210.73H652.136L656.471 200.155H655.196L653.021 205.78L650.621 200.155H649.286L652.361 207.19ZM662.595 208H663.84V200.155H662.595V203.26C662.19 203.8 661.515 204.13 660.675 204.13C659.58 204.13 658.965 203.515 658.965 202.135V200.155H657.72V202.195C657.72 204.355 658.935 205.21 660.345 205.21C661.41 205.21 662.13 204.835 662.595 204.34V208ZM669.655 208.135C671.44 208.135 672.715 207.31 673 205.735H671.755C671.59 206.65 670.9 207.1 669.67 207.1C668.05 207.1 667.21 206.125 667.15 204.325H673.06V203.92C673.06 201.115 671.35 200.02 669.535 200.02C667.375 200.02 665.86 201.67 665.86 204.04V204.16C665.86 206.56 667.435 208.135 669.655 208.135ZM671.785 203.32H667.195C667.42 201.925 668.26 201.055 669.535 201.055C670.84 201.055 671.665 201.7 671.785 203.32ZM679.981 204.505V208H681.226V200.155H679.981V203.455H676.126V200.155H674.881V208H676.126V204.505H679.981ZM683.743 208H684.988L688.993 201.955V208H690.238V200.155H688.993L684.988 206.2V200.155H683.743V208ZM695.215 201.145H696.685V203.98H695.215C693.97 203.98 693.535 203.47 693.535 202.615V202.57C693.535 201.655 694.03 201.145 695.215 201.145ZM693.145 208L695.335 204.925H696.685V208H697.93V200.155H695.29C693.655 200.155 692.29 200.845 692.29 202.57V202.615C692.29 203.935 693.145 204.52 694.105 204.715L691.72 208H693.145Z" fill="black"/>
<path fill-rule="evenodd" clip-rule="evenodd" d="M235 197C240.523 197 245 192.523 245 187C245 181.477 240.523 177 235 177C229.477 177 225 181.477 225 187C225 192.523 229.477 197 235 197Z" fill="#69C87C" stroke="white" stroke-width="3"/>
<path fill-rule="evenodd" clip-rule="evenodd" d="M274 197C279.523 197 284 192.523 284 187C284 181.477 279.523 177 274 177C268.477 177 264 181.477 264 187C264 192.523 268.477 197 274 197Z" fill="#69C87C" stroke="white" stroke-width="3"/>
<path fill-rule="evenodd" clip-rule="evenodd" d="M506 197C511.523 197 516 192.523 516 187C516 181.477 511.523 177 506 177C500.477 177 496 181.477 496 187C496 192.523 500.477 197 506 197Z" fill="#69C87C" stroke="white" stroke-width="3"/>
<path fill-rule="evenodd" clip-rule="evenodd" d="M390 131C395.523 131 400 126.523 400 121C400 115.477 395.523 111 390 111C384.477 111 380 115.477 380 121C380 126.523 384.477 131 390 131Z" fill="#69C87C" stroke="white" stroke-width="3"/>
<path fill-rule="evenodd" clip-rule="evenodd" d="M390 302C395.523 302 400 297.523 400 292C400 286.477 395.523 282 390 282C384.477 282 380 286.477 380 292C380 297.523 384.477 302 390 302Z" fill="#69C87C" stroke="white" stroke-width="3"/>
<path fill-rule="evenodd" clip-rule="evenodd" d="M390 262C395.523 262 400 257.523 400 252C400 246.477 395.523 242 390 242C384.477 242 380 246.477 380 252C380 257.523 384.477 262 390 262Z" fill="#69C87C" stroke="white" stroke-width="3"/>
<path fill-rule="evenodd" clip-rule="evenodd" d="M548 344C553.523 344 558 339.523 558 334C558 328.477 553.523 324 548 324C542.477 324 538 328.477 538 334C538 339.523 542.477 344 548 344Z" fill="#69C87C" stroke="white" stroke-width="3"/>
<path fill-rule="evenodd" clip-rule="evenodd" d="M507 344C512.523 344 517 339.523 517 334C517 328.477 512.523 324 507 324C501.477 324 497 328.477 497 334C497 339.523 501.477 344 507 344Z" fill="#69C87C" stroke="white" stroke-width="3"/>
<path fill-rule="evenodd" clip-rule="evenodd" d="M390 91C395.523 91 400 86.5228 400 81C400 75.4772 395.523 71 390 71C384.477 71 380 75.4772 380 81C380 86.5228 384.477 91 390 91Z" fill="#69C87C" stroke="white" stroke-width="3"/>
<path fill-rule="evenodd" clip-rule="evenodd" d="M546 197C551.523 197 556 192.523 556 187C556 181.477 551.523 177 546 177C540.477 177 536 181.477 536 187C536 192.523 540.477 197 546 197Z" fill="#69C87C" stroke="white" stroke-width="3"/>
<path d="M237.5 187H273" stroke="#69C87C" stroke-width="5" stroke-linecap="square"/>
<path d="M503.5 187H539" stroke="#69C87C" stroke-width="5" stroke-linecap="square"/>
<path d="M503.5 334H539" stroke="#69C87C" stroke-width="5" stroke-linecap="square"/>
<path d="M390 118.5V83" stroke="#69C87C" stroke-width="5" stroke-linecap="square"/>
<path d="M390 291.5V256" stroke="#69C87C" stroke-width="5" stroke-linecap="square"/>
</svg>
