<svg width="58" height="47" viewBox="0 0 58 47" fill="none" xmlns="http://www.w3.org/2000/svg">
<path id="Fill 1" fill-rule="evenodd" clip-rule="evenodd" d="M26.757 34.4553C27.1024 34.8472 27.3119 35.3616 27.3119 35.9247C27.3119 37.1535 26.3146 38.1497 25.0848 38.1497C15.3305 38.1497 8.68356 35.8951 4.72635 32.6525C2.4286 30.7695 1.00408 28.5477 0.374665 26.2066C-0.264063 23.8324 -0.0749698 21.3658 0.856744 19.0248C2.13385 15.8154 4.81995 12.8659 8.66981 10.7991C9.60307 7.39597 11.306 5.04687 13.6123 3.65423C15.9229 2.25862 18.7341 1.89282 21.8927 2.44733C24.6182 0.788459 27.2673 0 29.795 0C32.4607 0 34.9408 0.865339 37.1912 2.5023C41.2298 2.20182 44.9083 3.20901 47.7763 5.1871C50.6955 7.20043 52.7556 10.1982 53.5027 13.8391C55.4594 15.388 56.8256 17.2887 57.5153 19.7039C58.2491 22.2745 58.1667 25.3551 57.1518 29.1449C57.1262 29.2404 57.0948 29.3329 57.0581 29.422C55.9183 32.8677 53.7125 36.0961 50.7261 38.9055C48.5464 40.9561 41.753 45.8373 36.9343 46.814C33.1452 47.582 32.3529 45.843 32.3677 43.9508C32.3943 40.5413 32.207 35.3476 32.3567 32.0144C32.5703 30.8087 33.722 30.0039 34.9288 30.2166C35.8521 30.3798 36.5409 31.0919 36.7176 31.957C36.9857 33.2704 36.682 39.4596 36.9719 42.1197C38.9688 42.2601 46.5702 36.7179 47.6816 35.6722C50.1445 33.3551 51.9435 30.7571 52.842 28.0473L52.8543 27.9977C53.651 25.0225 53.7484 22.719 53.235 20.9206C52.8298 19.501 52.0018 18.3489 50.8048 17.3779C50.1017 16.9602 46.9452 15.2653 43.9899 16.5777C43.0303 17.0013 41.9083 16.5677 41.4843 15.6091C41.0603 14.6503 41.4943 13.5295 42.4538 13.1058C44.5416 12.1788 46.6347 12.1724 48.3993 12.5003C47.6855 11.0144 46.6045 9.76882 45.2538 8.83738C43.1249 7.36919 40.3057 6.65691 37.1544 6.96986C35.9981 8.32177 33.9288 10.9687 33.735 12.8016C34.2253 12.9632 34.6867 13.1556 35.084 13.3844C35.994 13.907 36.3079 15.068 35.7851 15.9772C35.2621 16.8864 34.1001 17.2001 33.19 16.6777C31.7937 15.8724 28.4963 15.7669 28.4871 15.7667C27.437 15.734 26.6125 14.8564 26.6453 13.8073C26.6781 12.758 27.5564 11.9345 28.6064 11.9673C28.6108 11.9674 29.1894 11.9858 30.0295 12.0729C30.4828 9.70984 32.2029 7.1301 33.5261 5.42359C32.3451 4.78361 31.0969 4.45001 29.795 4.45001C28.094 4.45001 26.2556 5.00635 24.3025 6.17506C24.2773 6.20684 24.2514 6.23777 24.2239 6.26835C24.2191 6.27357 22.8491 7.79968 22.5761 8.99974C22.9778 8.99333 23.3919 9.00714 23.8161 9.04632C24.8619 9.14074 25.6333 10.065 25.5385 11.1099C25.4439 12.155 24.519 12.9256 23.473 12.831C20.6894 12.5745 18.6225 13.8155 18.6167 13.8191C17.7148 14.3536 16.5494 14.0568 16.0144 13.156C15.4792 12.2549 15.7763 11.0905 16.6782 10.5558C16.6826 10.5532 17.4685 10.0816 18.7561 9.65812C18.736 8.6164 19.0601 7.56855 19.4874 6.64909C18.0959 6.60674 16.8891 6.86881 15.9087 7.46087C14.4933 8.31543 13.4339 9.93618 12.8391 12.4113C12.7945 14.1081 12.9693 17.8207 15.0854 20.3451C15.7605 21.1518 15.6538 22.3527 14.8466 23.0272C14.0395 23.702 12.8375 23.5953 12.1621 22.7889C10.345 20.6208 9.56026 17.9126 9.2392 15.6493C7.16108 17.0754 5.71082 18.823 4.98047 20.659C4.40445 22.106 4.28433 23.6176 4.67218 25.0595C5.06885 26.5346 6.00755 27.9684 7.54498 29.2282C10.3088 31.493 14.8922 33.1651 21.5999 33.5926C20.9521 31.317 20.6748 28.0917 22.1025 24.2247C21.3402 23.4888 20.7623 22.7587 20.3609 22.2513C20.3205 22.2005 20.3617 22.1994 20.4087 22.207L20.3541 22.1773C19.44 21.6589 19.1193 20.498 19.6381 19.5845C20.2961 18.4293 21.1802 18.2264 22.3008 18.8624C22.7069 19.0935 22.9678 19.4223 23.3435 19.8973C24.2155 20.9991 26.3174 23.655 29.2818 23.1115C30.3154 22.9221 31.3071 23.6059 31.4966 24.6386C31.6859 25.6715 31.0016 26.6622 29.968 26.8514C28.4651 27.127 27.1373 26.9963 25.9777 26.6317C24.6834 31.0162 26.3348 33.8331 26.757 34.4553ZM39.1491 26.0089C38.1225 26.2448 37.0986 25.604 36.8627 24.5782C36.6268 23.5525 37.268 22.5296 38.2946 22.2939C38.451 22.2582 39.1589 22.1063 40.0548 22.1754C43.3669 22.4307 46.3966 25.6159 45.7665 29.0884C45.5777 30.1217 44.5864 30.8071 43.5522 30.6185C42.5179 30.4299 41.8322 29.4398 42.0209 28.4065C42.0001 26.9667 40.5733 25.6831 39.1491 26.0089Z" fill="#47BD5C"/>
</svg>
