<svg width="80" height="80" viewBox="0 0 80 80" fill="none" xmlns="http://www.w3.org/2000/svg">
<g id="Group 10">
<rect id="Rectangle" width="80" height="80" fill="#303433"/>
<g id="iconfinder_send-01_186386">
<path id="Path" d="M22.1213 41.2174C20.7882 41.9071 20.8436 42.9174 22.2419 43.4662L26.3789 45.0824C27.7772 45.6276 29.8913 45.3301 31.0781 44.4146L49.0481 30.4223C50.23 29.5031 50.3566 29.6391 49.3297 30.7247L35.1229 45.7381C34.0936 46.8213 34.3973 48.1473 35.7993 48.6828L36.2839 48.8698C37.6859 49.4041 39.9733 50.3051 41.3655 50.8636L45.9551 52.7106C47.3485 53.2691 48.4885 53.733 48.491 53.7415C48.4922 53.75 48.4984 53.7755 48.5058 53.7779C48.5131 53.7803 48.8415 52.6098 49.2363 51.1781L56.2314 25.7898C56.6262 24.357 55.86 23.7486 54.5282 24.4383L22.1213 41.2174Z" fill="white"/>
<path id="Path_2" d="M33.4769 57.8349C33.3945 58.0765 36.3067 53.6711 36.3067 53.6711C37.1295 52.4301 36.6634 50.9499 35.2712 50.3888L32.0958 49.1041C30.7037 48.5419 30.0371 49.2013 30.6139 50.5759C30.6139 50.5771 33.5605 57.5871 33.4769 57.8349Z" fill="white"/>
</g>
</g>
</svg>
