<svg width="241" height="47" viewBox="0 0 241 47" fill="none" xmlns="http://www.w3.org/2000/svg">
<g id="Group 10">
<path id="Fill 1" fill-rule="evenodd" clip-rule="evenodd" d="M26.757 34.4553C27.1024 34.8472 27.3119 35.3616 27.3119 35.9247C27.3119 37.1535 26.3146 38.1497 25.0848 38.1497C15.3305 38.1497 8.68356 35.8951 4.72635 32.6525C2.4286 30.7695 1.00408 28.5477 0.374665 26.2066C-0.264063 23.8324 -0.0749698 21.3658 0.856744 19.0248C2.13385 15.8154 4.81995 12.8659 8.66981 10.7991C9.60307 7.39597 11.306 5.04687 13.6123 3.65423C15.9229 2.25862 18.7341 1.89282 21.8927 2.44733C24.6182 0.788459 27.2673 0 29.795 0C32.4607 0 34.9408 0.865339 37.1912 2.5023C41.2298 2.20182 44.9083 3.20901 47.7763 5.1871C50.6955 7.20043 52.7556 10.1982 53.5027 13.8391C55.4594 15.388 56.8256 17.2887 57.5153 19.7039C58.2491 22.2745 58.1667 25.3551 57.1518 29.1449C57.1262 29.2404 57.0948 29.3329 57.0581 29.422C55.9183 32.8677 53.7125 36.0961 50.7261 38.9055C48.5464 40.9561 41.753 45.8373 36.9343 46.814C33.1452 47.582 32.3529 45.843 32.3677 43.9508C32.3943 40.5413 32.207 35.3476 32.3567 32.0144C32.5703 30.8087 33.722 30.0039 34.9288 30.2166C35.8521 30.3798 36.5409 31.0919 36.7176 31.957C36.9857 33.2704 36.682 39.4596 36.9719 42.1197C38.9688 42.2601 46.5702 36.7179 47.6816 35.6722C50.1445 33.3551 51.9435 30.7571 52.842 28.0473L52.8543 27.9977C53.651 25.0225 53.7484 22.719 53.235 20.9206C52.8298 19.501 52.0018 18.3489 50.8048 17.3779C50.1017 16.9602 46.9452 15.2653 43.9899 16.5777C43.0303 17.0013 41.9083 16.5677 41.4843 15.6091C41.0603 14.6503 41.4943 13.5295 42.4538 13.1058C44.5416 12.1788 46.6347 12.1724 48.3993 12.5003C47.6855 11.0144 46.6045 9.76882 45.2538 8.83738C43.1249 7.36919 40.3057 6.65691 37.1544 6.96986C35.9981 8.32177 33.9288 10.9687 33.735 12.8016C34.2253 12.9632 34.6867 13.1556 35.084 13.3844C35.994 13.907 36.3079 15.068 35.7851 15.9772C35.2621 16.8864 34.1001 17.2001 33.19 16.6777C31.7937 15.8724 28.4963 15.7669 28.4871 15.7667C27.437 15.734 26.6125 14.8564 26.6453 13.8073C26.6781 12.758 27.5564 11.9345 28.6064 11.9673C28.6108 11.9674 29.1894 11.9858 30.0295 12.0729C30.4828 9.70984 32.2029 7.1301 33.5261 5.42359C32.3451 4.78361 31.0969 4.45001 29.795 4.45001C28.094 4.45001 26.2556 5.00635 24.3025 6.17506C24.2773 6.20684 24.2514 6.23777 24.2239 6.26835C24.2191 6.27357 22.8491 7.79968 22.5761 8.99974C22.9778 8.99333 23.3919 9.00714 23.8161 9.04632C24.8619 9.14074 25.6333 10.065 25.5385 11.1099C25.4439 12.155 24.519 12.9256 23.473 12.831C20.6894 12.5745 18.6225 13.8155 18.6167 13.8191C17.7148 14.3536 16.5494 14.0568 16.0144 13.156C15.4792 12.2549 15.7763 11.0905 16.6782 10.5558C16.6826 10.5532 17.4685 10.0816 18.7561 9.65812C18.736 8.6164 19.0601 7.56855 19.4874 6.64909C18.0959 6.60674 16.8891 6.86881 15.9087 7.46087C14.4933 8.31543 13.4339 9.93618 12.8391 12.4113C12.7945 14.1081 12.9693 17.8207 15.0854 20.3451C15.7605 21.1518 15.6538 22.3527 14.8466 23.0272C14.0395 23.702 12.8375 23.5953 12.1621 22.7889C10.345 20.6208 9.56026 17.9126 9.2392 15.6493C7.16108 17.0754 5.71082 18.823 4.98047 20.659C4.40445 22.106 4.28433 23.6176 4.67218 25.0595C5.06885 26.5346 6.00755 27.9684 7.54498 29.2282C10.3088 31.493 14.8922 33.1651 21.5999 33.5926C20.9521 31.317 20.6748 28.0917 22.1025 24.2247C21.3402 23.4888 20.7623 22.7587 20.3609 22.2513C20.3205 22.2005 20.3617 22.1994 20.4087 22.207L20.3541 22.1773C19.44 21.6589 19.1193 20.498 19.6381 19.5845C20.2961 18.4293 21.1802 18.2264 22.3008 18.8624C22.7069 19.0935 22.9678 19.4223 23.3435 19.8973C24.2155 20.9991 26.3174 23.655 29.2818 23.1115C30.3154 22.9221 31.3071 23.6059 31.4966 24.6386C31.6859 25.6715 31.0016 26.6622 29.968 26.8514C28.4651 27.127 27.1373 26.9963 25.9777 26.6317C24.6834 31.0162 26.3348 33.8331 26.757 34.4553ZM39.1491 26.0089C38.1225 26.2448 37.0986 25.604 36.8627 24.5782C36.6268 23.5525 37.268 22.5296 38.2946 22.2939C38.451 22.2582 39.1589 22.1063 40.0548 22.1754C43.3669 22.4307 46.3966 25.6159 45.7665 29.0884C45.5777 30.1217 44.5864 30.8071 43.5522 30.6185C42.5179 30.4299 41.8322 29.4398 42.0209 28.4065C42.0001 26.9667 40.5733 25.6831 39.1491 26.0089Z" fill="#47BD5C"/>
<path id="Fill 2" fill-rule="evenodd" clip-rule="evenodd" d="M76.9839 14.546V34.31C76.9839 34.6693 77.044 34.9996 77.164 35.3003C77.2837 35.6001 77.4643 35.8722 77.705 36.1152C77.9454 36.3582 78.2145 36.5405 78.5112 36.6622C78.8084 36.7836 79.1351 36.8446 79.4905 36.8446C79.8459 36.8446 80.1728 36.7836 80.4699 36.6622C80.7665 36.541 81.0355 36.3582 81.276 36.1152C81.5165 35.8719 81.6969 35.6001 81.8167 35.3001C81.937 34.9996 81.9971 34.6693 81.9971 34.31V14.477H86.7471C87.3532 14.477 87.8774 14.26 88.3188 13.8262C88.5396 13.6094 88.7054 13.37 88.8157 13.1092C88.9256 12.8486 88.9808 12.5646 88.9808 12.2582C88.9808 11.9386 88.9254 11.6449 88.8156 11.3773C88.7056 11.1104 88.5396 10.8677 88.3188 10.6511C88.0978 10.4338 87.8559 10.2706 87.5945 10.1625C87.3334 10.0546 87.0509 10 86.7471 10H72.2334C71.9297 10 71.647 10.0546 71.3863 10.1625C71.1249 10.2704 70.8832 10.4336 70.662 10.6511C70.4412 10.8677 70.2754 11.1104 70.1653 11.3773C70.0552 11.6449 70 11.9386 70 12.2582C70 12.5644 70.0552 12.8481 70.1653 13.109C70.2754 13.3698 70.441 13.609 70.662 13.8262C71.1034 14.26 71.6277 14.477 72.2334 14.477H76.9839V14.546ZM200.244 35.0991L200.245 24.1325C200.245 23.781 200.223 23.411 200.182 23.0235C200.14 22.6348 200.076 22.226 199.992 21.7986C199.909 21.377 199.777 20.9711 199.598 20.5823C199.418 20.1918 199.189 19.8173 198.913 19.4606C198.638 19.1048 198.302 18.7762 197.906 18.4769C197.51 18.1772 197.054 17.9066 196.539 17.6662C196.025 17.4263 195.425 17.2451 194.74 17.1243C194.056 17.0037 193.286 16.9429 192.432 16.9429C191.953 16.9429 191.454 16.9663 190.935 17.0122C190.414 17.0585 189.876 17.1271 189.321 17.2179C188.774 17.3077 188.277 17.4253 187.829 17.5674C187.372 17.7127 186.966 17.8847 186.612 18.0783C186.371 18.2106 186.166 18.3468 186 18.4876C185.837 18.6261 185.71 18.7704 185.624 18.9204C185.537 19.0727 185.47 19.2291 185.426 19.388C185.383 19.5452 185.361 19.7071 185.361 19.8717C185.361 20.1263 185.403 20.3703 185.488 20.6023C185.573 20.8348 185.701 21.057 185.872 21.2678C186.039 21.4751 186.25 21.6311 186.503 21.7354C186.758 21.8406 187.057 21.8934 187.399 21.8934C187.577 21.8934 187.765 21.8787 187.963 21.8497C188.163 21.8203 188.372 21.776 188.591 21.7185L189.142 21.5695C189.375 21.5061 189.602 21.4443 189.84 21.3827C190.04 21.331 190.238 21.2851 190.431 21.2454C190.631 21.2041 190.821 21.1707 190.998 21.1445C191.175 21.1188 191.341 21.0985 191.494 21.0852C191.648 21.0719 191.792 21.065 191.925 21.065C192.595 21.065 193.153 21.1423 193.595 21.2959C194.045 21.452 194.379 21.6881 194.595 22.0023C194.807 22.3097 194.966 22.639 195.072 22.9883C195.178 23.3367 195.231 23.7053 195.231 24.0925V25.227H191.808C190.604 25.227 189.527 25.3564 188.577 25.6144C187.63 25.8717 186.808 26.2581 186.113 26.772C185.42 27.2839 184.9 27.8986 184.554 28.6149C184.207 29.3311 184.034 30.1516 184.034 31.0752C184.034 31.8947 184.171 32.6526 184.444 33.3477C184.717 34.0428 185.127 34.6767 185.673 35.2484C186.218 35.8187 186.868 36.2473 187.622 36.5329C188.378 36.8192 189.241 36.9627 190.208 36.9627C190.724 36.9627 191.233 36.9102 191.734 36.8063C192.237 36.702 192.734 36.5456 193.225 36.3371C193.586 36.1837 193.936 36.0009 194.274 35.7895C194.611 35.5784 194.937 35.3376 195.251 35.0685L195.337 34.9942L195.362 35.1061C195.458 35.5461 195.649 35.9592 195.999 36.2735C196.351 36.5887 196.866 36.8077 197.609 36.8578C198.225 36.8997 198.859 36.7157 199.353 36.383C199.823 36.0667 200.166 35.616 200.244 35.0991ZM195.231 28.7083V31.2641L195.208 31.2849C194.919 31.5368 194.623 31.7598 194.32 31.9529C194.018 32.1459 193.709 32.3088 193.395 32.4406C193.079 32.5733 192.765 32.674 192.455 32.7402C192.145 32.807 191.837 32.8407 191.535 32.8407C191.138 32.8407 190.782 32.7937 190.467 32.6997C190.15 32.6051 189.874 32.463 189.639 32.273C189.403 32.0819 189.225 31.8528 189.107 31.5865C188.989 31.321 188.93 31.0188 188.93 30.6807C188.93 30.3406 188.998 30.042 189.134 29.7851C189.27 29.5276 189.473 29.3128 189.743 29.1429C190.009 28.9748 190.333 28.8482 190.711 28.7645C191.087 28.6811 191.518 28.6391 192.003 28.6391H195.231V28.7083ZM122.049 35.0991L122.05 24.1325C122.05 23.7796 122.029 23.4092 121.987 23.0215C121.945 22.6336 121.882 22.2253 121.797 21.7986C121.714 21.3765 121.583 20.9708 121.403 20.5821C121.223 20.1924 120.995 19.8178 120.719 19.4606C120.443 19.1048 120.107 18.7762 119.712 18.4771C119.316 18.1777 118.86 17.9068 118.344 17.6662C117.83 17.4255 117.231 17.2449 116.547 17.1243C115.862 17.0036 115.092 16.9429 114.237 16.9429C113.759 16.9429 113.259 16.9661 112.741 17.0118C112.22 17.0579 111.682 17.1267 111.127 17.2179C110.579 17.308 110.081 17.4255 109.633 17.5678C109.175 17.7132 108.77 17.8847 108.418 18.0781C108.177 18.2101 107.972 18.3461 107.806 18.4874C107.642 18.6258 107.516 18.77 107.43 18.9204C107.342 19.0732 107.275 19.2291 107.232 19.387C107.188 19.5448 107.166 19.7066 107.166 19.8717C107.166 20.1265 107.209 20.3705 107.293 20.6026C107.378 20.8348 107.507 21.057 107.677 21.2678C107.845 21.4753 108.055 21.6317 108.308 21.7354C108.563 21.8408 108.862 21.8934 109.204 21.8934C109.383 21.8934 109.571 21.8787 109.769 21.8497C109.969 21.8205 110.178 21.7762 110.396 21.7185L111.645 21.3827C111.847 21.3303 112.042 21.2852 112.229 21.2468C112.433 21.2049 112.625 21.1709 112.803 21.1445C112.98 21.1184 113.146 21.0985 113.3 21.0852C113.454 21.0719 113.597 21.065 113.73 21.065C114.401 21.065 114.958 21.1421 115.401 21.2957C115.85 21.4518 116.184 21.6872 116.4 22.0023C116.612 22.3097 116.771 22.6388 116.877 22.9877C116.984 23.3367 117.037 23.7049 117.037 24.0925V25.227H113.613C112.41 25.227 111.332 25.3564 110.382 25.6144C109.435 25.8715 108.613 26.2578 107.918 26.772C107.225 27.2841 106.705 27.8989 106.359 28.6151C106.013 29.3315 105.839 30.1516 105.839 31.0752C105.839 31.8947 105.976 32.6524 106.249 33.3477C106.522 34.0426 106.932 34.6765 107.478 35.2484C108.024 35.8191 108.674 36.2477 109.428 36.5329C110.184 36.8192 111.046 36.9627 112.013 36.9627C112.529 36.9627 113.039 36.9104 113.54 36.8063C114.043 36.702 114.54 36.5458 115.03 36.3372C115.392 36.1835 115.742 36.0003 116.079 35.7891C116.417 35.5782 116.743 35.3376 117.056 35.0685L117.143 34.9942L117.167 35.1061C117.263 35.5461 117.454 35.9592 117.805 36.273C118.156 36.5885 118.671 36.8073 119.415 36.8578C120.03 36.9003 120.665 36.7161 121.159 36.3834C121.629 36.0671 121.972 35.616 122.049 35.0991ZM92.7586 30.2608C92.9035 30.764 93.122 31.2266 93.4123 31.6471C93.7059 32.0725 94.1264 32.3917 94.6727 32.6039C95.214 32.8139 95.879 32.9193 96.6671 32.9193C96.8753 32.9193 97.0863 32.9127 97.299 32.8994C97.512 32.8863 97.7272 32.8664 97.9433 32.8402C98.2819 32.7988 98.5975 32.7259 98.8969 32.6572L99.1396 32.6021L99.6109 32.5038C99.9137 32.4425 100.211 32.3823 100.489 32.3056C100.701 32.2472 100.912 32.2033 101.12 32.1745C101.327 32.1451 101.534 32.1307 101.739 32.1307C102.082 32.1307 102.379 32.1772 102.628 32.2691C102.873 32.3603 103.074 32.4972 103.229 32.6786C103.386 32.8632 103.505 33.0587 103.583 33.2642C103.66 33.4695 103.7 33.6867 103.7 33.9154C103.7 34.1451 103.668 34.3551 103.606 34.5447C103.544 34.7329 103.45 34.9036 103.326 35.0546C103.199 35.2079 103.056 35.3493 102.897 35.4781C102.738 35.6068 102.562 35.7235 102.37 35.8271C102.01 36.022 101.599 36.1919 101.141 36.3352C100.683 36.4788 100.177 36.5964 99.6216 36.6875C99.0635 36.7795 98.5347 36.8485 98.0366 36.8941C97.5401 36.9396 97.0702 36.9627 96.628 36.9627C95.8514 36.9627 95.1241 36.9005 94.4461 36.7763C93.7682 36.6525 93.1383 36.4663 92.5578 36.2187C91.9787 35.9717 91.4498 35.6749 90.9721 35.329C90.4949 34.9833 90.0694 34.589 89.6963 34.1467C89.3226 33.7034 88.9967 33.2158 88.7193 32.6846C88.4423 32.1536 88.2129 31.5771 88.0321 30.9568C87.8513 30.3358 87.7152 29.6828 87.6246 28.9996C87.5344 28.3166 87.4888 27.6011 87.4888 26.8543C87.4888 25.3486 87.6718 23.9938 88.0369 22.7914C88.4014 21.5904 88.9487 20.5396 89.678 19.6396C90.4055 18.7414 91.3058 18.0672 92.3775 17.6179C93.4514 17.1682 94.6996 16.9429 96.1209 16.9429C96.8584 16.9429 97.5403 17.0017 98.1663 17.1191C98.7914 17.2364 99.3622 17.4124 99.8773 17.6467C100.393 17.8814 100.857 18.1582 101.269 18.4769C101.68 18.7951 102.04 19.1565 102.348 19.5589C102.658 19.9627 102.926 20.4012 103.151 20.8736C103.376 21.3454 103.56 21.8529 103.702 22.3943C103.844 22.9365 103.951 23.4944 104.022 24.0665C104.093 24.6388 104.129 25.2266 104.129 25.8286C104.129 26.4288 104.084 26.9183 103.994 27.2967C103.907 27.6671 103.777 27.9305 103.606 28.0849C103.43 28.2429 103.23 28.3619 103.004 28.4411C102.778 28.5205 102.525 28.5604 102.247 28.5604H92.541V28.6294C92.541 29.2138 92.6139 29.7581 92.7586 30.2608ZM99.4765 25.3455H99.5464L99.5448 25.2749C99.5317 24.678 99.4624 24.1304 99.3375 23.6326C99.2127 23.133 99.0309 22.6827 98.7936 22.2823C98.5521 21.8756 98.2069 21.5701 97.7581 21.3672C97.3135 21.1657 96.7674 21.065 96.1209 21.065C95.5923 21.065 95.1165 21.154 94.6951 21.332C94.2727 21.5099 93.9048 21.7774 93.5924 22.1339C93.2808 22.4891 93.037 22.9299 92.862 23.4545C92.6876 23.9767 92.5804 24.5832 92.5412 25.2722L92.5373 25.3455H99.4765ZM117.037 28.7083V31.2641L117.013 31.2849C116.725 31.5366 116.429 31.7595 116.127 31.9523C115.824 32.1449 115.515 32.3084 115.2 32.4406C114.884 32.5737 114.57 32.674 114.261 32.7404C113.95 32.8072 113.643 32.8407 113.34 32.8407C112.944 32.8407 112.587 32.7933 112.272 32.6997C111.955 32.6051 111.679 32.4626 111.444 32.273C111.208 32.0824 111.03 31.8531 110.912 31.5867C110.794 31.3212 110.735 31.0188 110.735 30.6807C110.735 30.3406 110.803 30.042 110.939 29.7854C111.074 29.5278 111.278 29.3134 111.548 29.1429C111.814 28.9744 112.138 28.848 112.516 28.7643C112.892 28.681 113.323 28.6391 113.808 28.6391H117.037V28.7083ZM136.752 21.639L136.908 22.9806C136.949 23.3349 137.036 23.6495 137.16 23.9244C137.29 24.2094 137.462 24.4531 137.668 24.6549C137.869 24.8517 138.099 24.9997 138.357 25.0983C138.615 25.1969 138.904 25.2465 139.22 25.2465C139.574 25.2465 139.889 25.1797 140.166 25.046C140.442 24.9127 140.681 24.7121 140.883 24.4451C141.09 24.1704 141.243 23.8494 141.328 23.4855C141.409 23.1382 141.429 22.7508 141.376 22.326L141.22 21.0634C141.177 20.7126 141.122 20.4007 141.053 20.1316C140.984 19.8641 140.9 19.6366 140.799 19.4512C140.698 19.2664 140.561 19.0872 140.389 18.9117C140.216 18.7354 140.008 18.5617 139.766 18.3899C139.439 18.1562 139.069 17.9471 138.658 17.7659C138.257 17.5887 137.815 17.4376 137.331 17.3152C136.839 17.1911 136.356 17.098 135.884 17.0358C135.414 16.974 134.952 16.9429 134.499 16.9429C133.064 16.9429 131.78 17.1684 130.647 17.6185C129.516 18.068 128.534 18.7434 127.702 19.643C126.87 20.5426 126.245 21.6031 125.829 22.8234C125.412 24.0449 125.204 25.428 125.204 26.9727C125.204 27.6913 125.254 28.3848 125.354 29.0517C125.455 29.7188 125.605 30.3602 125.805 30.9744C126.005 31.5887 126.252 32.1588 126.545 32.6824C126.839 33.208 127.18 33.6894 127.566 34.1257C127.952 34.5616 128.388 34.9531 128.871 35.2986C129.356 35.6448 129.889 35.9452 130.469 36.1994C131.048 36.4532 131.675 36.6444 132.347 36.7717C133.018 36.8987 133.736 36.9627 134.499 36.9627C134.862 36.9627 135.273 36.9377 135.731 36.8892C136.19 36.8401 136.699 36.7664 137.258 36.6678C137.801 36.5721 138.301 36.4532 138.758 36.3151C139.235 36.1712 139.665 36.0065 140.05 35.8254C140.251 35.7301 140.437 35.622 140.602 35.4983C140.766 35.375 140.913 35.2354 141.039 35.0755C141.164 34.9185 141.258 34.74 141.32 34.5403C141.383 34.3407 141.415 34.1187 141.415 33.8759C141.415 33.6344 141.375 33.4017 141.297 33.1794C141.218 32.9558 141.099 32.7416 140.942 32.5379C140.787 32.3374 140.589 32.1864 140.35 32.0856C140.108 31.9843 139.822 31.9332 139.493 31.9332C139.328 31.9332 139.147 31.9495 138.954 31.9814C138.759 32.0139 138.548 32.063 138.322 32.1282L137.653 32.3171C137.442 32.3746 137.23 32.4308 137.012 32.4833C136.838 32.5256 136.654 32.5657 136.459 32.6039C136.261 32.6424 136.047 32.6816 135.818 32.7213C135.59 32.7607 135.365 32.7907 135.144 32.8104C134.922 32.8304 134.707 32.8407 134.499 32.8407C133.774 32.8407 133.142 32.705 132.606 32.4336C132.068 32.1616 131.626 31.754 131.282 31.2111C130.94 30.6722 130.683 30.0483 130.512 29.3406C130.342 28.6348 130.256 27.8451 130.256 26.9727C130.256 26.0608 130.342 25.2453 130.512 24.526C130.683 23.8046 130.94 23.1805 131.282 22.6545C131.627 22.1249 132.069 21.7267 132.606 21.4618C133.143 21.1973 133.774 21.065 134.499 21.065C134.684 21.065 134.872 21.0767 135.063 21.0999C135.255 21.1232 135.449 21.1586 135.646 21.2048C135.843 21.2511 136.031 21.3062 136.209 21.3694C136.386 21.4324 136.555 21.5047 136.715 21.5852L136.748 21.6021L136.752 21.639ZM144.413 12.5459V34.31C144.413 34.6691 144.473 34.9994 144.593 35.2996C144.713 35.6001 144.894 35.8722 145.134 36.1152C145.374 36.358 145.643 36.5405 145.94 36.662C146.237 36.7833 146.564 36.8446 146.919 36.8446C147.275 36.8446 147.601 36.7833 147.898 36.662C148.196 36.5404 148.465 36.3578 148.705 36.1152C148.945 35.8724 149.125 35.6001 149.246 35.2993C149.366 34.9986 149.426 34.6684 149.426 34.31V22.641L149.451 22.6199C149.7 22.4075 149.968 22.2098 150.253 22.0275C150.539 21.8447 150.842 21.6772 151.162 21.5254C151.485 21.3726 151.797 21.2572 152.097 21.1805C152.399 21.1039 152.689 21.065 152.967 21.065C153.415 21.065 153.822 21.1204 154.186 21.2307C154.551 21.3414 154.875 21.5087 155.155 21.7309C155.438 21.956 155.651 22.2909 155.792 22.7356C155.93 23.1731 156 23.7176 156 24.369V34.31C156 34.6689 156.061 34.9994 156.18 35.2993C156.301 35.6001 156.481 35.8722 156.721 36.1152C156.962 36.358 157.231 36.5405 157.528 36.662C157.825 36.7833 158.152 36.8446 158.507 36.8446C158.862 36.8446 159.189 36.7833 159.486 36.6622C159.783 36.541 160.052 36.3582 160.292 36.1152C160.533 35.8722 160.713 35.5999 160.833 35.3001C160.953 34.999 161.014 34.6687 161.014 34.31V24.369C161.014 23.0617 160.868 21.9337 160.577 20.9871C160.288 20.0448 159.855 19.2809 159.278 18.6977C158.7 18.1133 158.015 17.6747 157.225 17.3826C156.433 17.0895 155.534 16.9429 154.527 16.9429C154.075 16.9429 153.632 16.9788 153.197 17.05C152.762 17.1221 152.335 17.2298 151.916 17.3729C151.497 17.5159 151.089 17.6987 150.693 17.9201C150.297 18.1415 149.912 18.4028 149.537 18.703L149.426 18.792V12.5459C149.426 12.1886 149.365 11.858 149.245 11.5565C149.124 11.2553 148.944 10.9822 148.705 10.7406C148.466 10.4987 148.196 10.3157 147.898 10.1943C147.601 10.0725 147.274 10.0113 146.919 10.0113C146.564 10.0113 146.237 10.0725 145.94 10.1941C145.643 10.3152 145.374 10.4977 145.134 10.7406C144.894 10.9834 144.713 11.2553 144.593 11.5561C144.473 11.8563 144.413 12.1866 144.413 12.5459ZM169.581 17.5837V12.5459C169.581 12.1886 169.52 11.8575 169.4 11.5561C169.279 11.2551 169.099 10.982 168.86 10.7406C168.62 10.4987 168.351 10.3159 168.053 10.1943C167.756 10.0725 167.429 10.0113 167.074 10.0113C166.719 10.0113 166.392 10.0725 166.095 10.1937C165.798 10.3149 165.529 10.4975 165.289 10.7406C165.049 10.9838 164.868 11.2555 164.748 11.5555C164.628 11.8561 164.568 12.1866 164.568 12.5459C164.568 13.3733 164.575 13.6307 164.582 13.8926C164.589 14.1539 164.596 14.4206 164.597 15.2355L164.618 34.1824C164.6 34.8005 164.667 35.4716 164.997 36.0025C165.324 36.5305 165.914 36.924 166.945 36.9941C167.56 37.0359 168.193 36.8522 168.687 36.5195C169.158 36.2026 169.501 35.7503 169.577 35.2319L169.598 35.0852L169.696 35.1961C170.182 35.7494 170.684 36.1913 171.38 36.4939C172.079 36.7973 172.976 36.9627 174.253 36.9627C174.743 36.9627 175.222 36.9136 175.688 36.8162C176.154 36.7185 176.611 36.5721 177.055 36.3769C177.498 36.1821 177.916 35.933 178.309 35.6307C178.702 35.3275 179.07 34.9708 179.41 34.5614C179.751 34.1517 180.059 33.6865 180.334 33.1673C180.608 32.6478 180.849 32.0738 181.055 31.4482C181.262 30.8218 181.417 30.1343 181.52 29.3875C181.624 28.6422 181.676 27.8364 181.676 26.9727C181.676 25.4806 181.49 24.1311 181.118 22.9255C180.747 21.7207 180.19 20.6578 179.448 19.7379C178.708 18.8205 177.785 18.1317 176.681 17.6727C175.575 17.2127 174.284 16.9826 172.81 16.9826C172.539 16.9826 172.269 17.0005 171.999 17.036C171.729 17.0718 171.458 17.1257 171.188 17.197C170.918 17.2687 170.654 17.343 170.4 17.4182C170.144 17.4947 169.9 17.5718 169.671 17.6493L169.581 17.6793V17.5837ZM169.581 31.233V21.7641L169.616 21.7444C169.828 21.6243 170.063 21.52 170.323 21.4328C170.58 21.3462 170.859 21.2762 171.16 21.2237C171.459 21.172 171.74 21.1318 172.003 21.1053C172.267 21.0785 172.51 21.065 172.732 21.065C173.432 21.065 174.033 21.1979 174.534 21.4628C175.037 21.7289 175.438 22.1277 175.737 22.6582C176.032 23.1835 176.255 23.807 176.402 24.5283C176.55 25.2465 176.624 26.062 176.624 26.9727C176.624 27.8832 176.551 28.6962 176.408 29.4114C176.263 30.1293 176.046 30.7481 175.757 31.2667C175.465 31.7901 175.099 32.1834 174.659 32.4459C174.219 32.7092 173.706 32.8407 173.122 32.8407C172.87 32.8407 172.6 32.8072 172.312 32.7402C172.025 32.674 171.721 32.5735 171.399 32.4413C171.078 32.3086 170.766 32.1451 170.466 31.9519C170.168 31.7595 169.88 31.5364 169.604 31.2837L169.581 31.2631V31.233ZM209.412 20.9539C209.746 20.8706 210.143 20.8281 210.603 20.8281C210.875 20.8281 211.141 20.8422 211.4 20.8684C211.662 20.8951 211.915 20.935 212.158 20.9875C212.4 21.0401 212.64 21.1073 212.879 21.1824C213.118 21.2575 213.355 21.34 213.591 21.4236C213.817 21.5039 214.04 21.576 214.257 21.646C214.437 21.7036 214.613 21.7605 214.78 21.8185C214.965 21.8823 215.153 21.9308 215.342 21.9634C215.529 21.995 215.718 22.0118 215.909 22.0118C216.225 22.0118 216.5 21.9619 216.731 21.8638C216.961 21.7668 217.15 21.6208 217.299 21.4274C217.449 21.2303 217.563 21.0206 217.639 20.8007C217.714 20.5819 217.752 20.3504 217.752 20.1086C217.752 19.8791 217.718 19.6686 217.649 19.4762C217.581 19.2843 217.478 19.1092 217.34 18.9512C217.196 18.7861 217.04 18.6337 216.871 18.499C216.708 18.3694 216.533 18.2547 216.346 18.1582C216.014 17.9865 215.614 17.8297 215.149 17.687C214.685 17.5442 214.152 17.4144 213.555 17.2969C212.959 17.1797 212.391 17.0907 211.855 17.0316C211.318 16.973 210.809 16.9429 210.33 16.9429C209.878 16.9429 209.428 16.9742 208.98 17.0358C208.53 17.0982 208.081 17.1913 207.636 17.3148C207.193 17.4378 206.773 17.5907 206.377 17.7733C205.98 17.9561 205.606 18.1691 205.257 18.41C204.91 18.65 204.597 18.9235 204.317 19.2283C204.039 19.5331 203.792 19.8715 203.58 20.2419C203.37 20.6105 203.211 21.0113 203.105 21.4422C203 21.8737 202.946 22.3367 202.946 22.8302C202.946 23.3506 203.006 23.8265 203.124 24.2571C203.242 24.6865 203.419 25.0727 203.655 25.4144C203.892 25.758 204.156 26.0745 204.443 26.3615C204.729 26.6479 205.04 26.9048 205.374 27.1321C205.71 27.3608 206.056 27.5653 206.411 27.7448C206.765 27.9232 207.129 28.078 207.504 28.2088C207.884 28.3415 208.236 28.4625 208.556 28.5674C208.878 28.6729 209.176 28.7647 209.45 28.8387C210.048 29.0002 210.585 29.162 211.058 29.3265C211.532 29.4905 211.944 29.658 212.291 29.8298C212.645 30.0051 212.912 30.2125 213.091 30.4514C213.272 30.6937 213.364 30.9677 213.364 31.2723C213.364 31.5211 213.302 31.7532 213.178 31.968C213.057 32.1801 212.874 32.3746 212.633 32.5513C212.391 32.7271 212.097 32.8593 211.751 32.9467C211.407 33.0335 211.011 33.0774 210.564 33.0774C210.317 33.0774 210.06 33.0619 209.795 33.0323C209.529 33.0025 209.253 32.9576 208.97 32.8982C208.69 32.8392 208.411 32.7754 208.135 32.7066C207.856 32.6369 207.579 32.562 207.307 32.4829C206.944 32.3774 206.562 32.2603 206.187 32.1451L205.999 32.0878C205.788 32.0233 205.578 31.9746 205.369 31.9424C205.161 31.91 204.955 31.8939 204.751 31.8939C204.422 31.8939 204.133 31.9483 203.885 32.0562C203.638 32.1635 203.431 32.3247 203.263 32.5383C203.092 32.7557 202.964 32.9801 202.879 33.21C202.794 33.4385 202.751 33.674 202.751 33.9154C202.751 34.1449 202.783 34.3546 202.845 34.5439C202.908 34.7333 203.001 34.904 203.125 35.0546C203.25 35.2057 203.401 35.3447 203.577 35.4716C203.757 35.6015 203.963 35.7199 204.193 35.8249C204.393 35.9161 204.614 36.0051 204.857 36.089C205.088 36.1692 205.338 36.2448 205.606 36.3139C205.889 36.3872 206.175 36.4556 206.463 36.5182C206.745 36.5798 207.03 36.6368 207.318 36.6875C207.613 36.7402 207.909 36.7853 208.203 36.8218C208.486 36.8574 208.768 36.885 209.046 36.9035C209.334 36.9227 209.603 36.9375 209.854 36.9474C210.105 36.9575 210.342 36.9627 210.564 36.9627C211.068 36.9627 211.564 36.9313 212.05 36.8697C212.539 36.8075 213.02 36.7139 213.492 36.5905C213.962 36.4675 214.406 36.3139 214.82 36.1317C215.236 35.9491 215.627 35.7364 215.988 35.4948C216.347 35.2552 216.673 34.9817 216.962 34.6763C217.252 34.3703 217.506 34.0319 217.723 33.6634C217.94 33.2956 218.104 32.8943 218.213 32.4622C218.322 32.031 218.377 31.5682 218.377 31.0752C218.377 30.5949 218.325 30.1515 218.223 29.7466C218.12 29.342 217.967 28.9744 217.763 28.6461C217.559 28.3161 217.325 28.012 217.065 27.7356C216.805 27.4596 216.516 27.2106 216.202 26.9899C215.885 26.7675 215.55 26.5646 215.198 26.382C214.846 26.1993 214.477 26.036 214.091 25.8935C213.703 25.7502 213.323 25.6132 212.952 25.487C212.584 25.3618 212.224 25.2467 211.872 25.1455C211.311 24.9844 210.799 24.8206 210.337 24.6535C209.874 24.4862 209.458 24.3137 209.091 24.1351C208.717 23.9533 208.435 23.7303 208.246 23.468C208.055 23.2026 207.959 22.8973 207.959 22.5545C207.959 22.32 208.013 22.0999 208.119 21.8958C208.224 21.6931 208.382 21.5065 208.59 21.3366C208.799 21.1667 209.073 21.0389 209.412 20.9539ZM225.63 30.2605C225.485 29.7579 225.412 29.2138 225.412 28.6294V28.5604H235.118C235.395 28.5604 235.648 28.5201 235.875 28.4404C236.101 28.3615 236.302 28.2423 236.477 28.0846C236.647 27.9309 236.777 27.6674 236.865 27.2964C236.955 26.9179 237 26.4281 237 25.8286C237 25.2268 236.964 24.6402 236.893 24.0694C236.822 23.496 236.715 22.937 236.573 22.3943C236.432 21.8541 236.248 21.3474 236.023 20.8756C235.797 20.4024 235.529 19.9627 235.22 19.5589C234.912 19.1571 234.551 18.7954 234.139 18.4766C233.727 18.1574 233.263 17.8802 232.749 17.6467C232.234 17.4128 231.662 17.2367 231.036 17.1191C230.411 17.0017 229.729 16.9429 228.992 16.9429C227.571 16.9429 226.323 17.1684 225.249 17.6181C224.176 18.0678 223.276 18.742 222.549 19.6396C221.821 20.5394 221.273 21.591 220.908 22.7922C220.543 23.9944 220.36 25.3489 220.36 26.8543C220.36 27.5999 220.406 28.3147 220.496 28.9972C220.587 29.6816 220.723 30.3356 220.903 30.9568C221.083 31.5757 221.312 32.1516 221.59 32.6828C221.868 33.2148 222.194 33.7036 222.568 34.1467C222.94 34.5881 223.366 34.9829 223.843 35.3283C224.321 35.6742 224.85 35.9715 225.429 36.2187C226.009 36.4665 226.639 36.6523 227.317 36.7763C227.995 36.9005 228.723 36.9627 229.499 36.9627C229.941 36.9627 230.412 36.9392 230.908 36.8936C231.407 36.8478 231.936 36.7785 232.493 36.6875C233.045 36.5977 233.551 36.48 234.008 36.3369C234.468 36.1925 234.88 36.022 235.242 35.8271C235.432 35.7243 235.609 35.6076 235.768 35.4785C235.927 35.3501 236.071 35.2079 236.197 35.0546C236.321 34.904 236.415 34.7335 236.477 34.544C236.539 34.3546 236.571 34.1446 236.571 33.9154C236.571 33.6871 236.532 33.4699 236.454 33.265C236.375 33.0585 236.257 32.8624 236.1 32.6786C235.946 32.4976 235.745 32.361 235.499 32.2698C235.25 32.1772 234.953 32.1307 234.61 32.1307C234.406 32.1307 234.2 32.1454 233.993 32.1745C233.784 32.2035 233.572 32.2478 233.36 32.3056C233.074 32.3835 232.769 32.4457 232.459 32.5087L232.011 32.6021L231.745 32.6623C231.453 32.7295 231.144 32.8008 230.814 32.8402C230.596 32.8658 230.379 32.8863 230.163 32.8994C229.953 32.9127 229.744 32.9193 229.538 32.9193C228.751 32.9193 228.086 32.8139 227.544 32.6035C226.997 32.3911 226.577 32.0721 226.283 31.6471C225.993 31.2268 225.775 30.7644 225.63 30.2605ZM232.348 25.3455H225.408L225.413 25.2722C225.452 24.5832 225.559 23.9767 225.733 23.4545C225.908 22.9295 226.152 22.4889 226.464 22.1339C226.776 21.7774 227.144 21.5101 227.566 21.3315C227.988 21.154 228.463 21.065 228.992 21.065C229.639 21.065 230.185 21.1661 230.63 21.3674C231.079 21.5705 231.424 21.8761 231.665 22.2823C231.902 22.6819 232.083 23.1328 232.209 23.6333C232.333 24.1309 232.403 24.6786 232.416 25.2749L232.417 25.3455H232.348Z" fill="#303433"/>
<path id="Fill 3" fill-rule="evenodd" clip-rule="evenodd" d="M238.5 10C239.19 10 239.816 10.2801 240.268 10.7323C240.72 11.1845 241 11.8097 241 12.5001C241 13.1896 240.72 13.8144 240.268 14.2668C239.815 14.7201 239.19 15 238.5 15C237.81 15 237.185 14.7199 236.732 14.2679C236.28 13.8155 236 13.1904 236 12.5001C236 11.8111 236.28 11.1862 236.732 10.7334C237.186 10.2801 237.811 10 238.5 10ZM239.415 13.5918L238.934 12.681C239.228 12.5544 239.438 12.2669 239.438 11.9422C239.438 11.4756 239.064 11.0835 238.62 11.0835H237.769V11.1059C237.653 11.1136 237.56 11.2105 237.56 11.3263V13.6928C237.56 13.8159 237.657 13.9132 237.78 13.9132C237.903 13.9132 238.001 13.8159 238.001 13.6928V12.7557H238.474L239.023 13.7972C239.061 13.8756 239.139 13.9169 239.217 13.9169C239.255 13.9169 239.288 13.9092 239.322 13.8906C239.43 13.8345 239.471 13.7003 239.415 13.5918ZM238.001 11.5277H238.62C238.818 11.5277 238.997 11.7219 238.997 11.9422C238.997 12.1399 238.807 12.3155 238.59 12.3155H238.001V11.5277ZM239.91 11.0899C239.55 10.7288 239.051 10.5055 238.5 10.5055C237.949 10.5055 237.45 10.7284 237.09 11.0887C236.728 11.4498 236.505 11.9487 236.505 12.5001C236.505 13.0507 236.729 13.5494 237.09 13.9103C237.451 14.2713 237.949 14.4946 238.5 14.4946C239.051 14.4946 239.55 14.2714 239.911 13.9109C240.272 13.55 240.495 13.0509 240.495 12.5001C240.495 11.9493 240.271 11.4506 239.91 11.0899Z" fill="#303433"/>
</g>
</svg>
